<?xml version="1.0" standalone="no"?>
<!DOCTYPE svg PUBLIC "-//W3C//DTD SVG 20010904//EN"
 "http://www.w3.org/TR/2001/REC-SVG-20010904/DTD/svg10.dtd">
<svg version="1.0" xmlns="http://www.w3.org/2000/svg"
 width="1024.000000pt" height="1024.000000pt" viewBox="0 0 1024.000000 1024.000000"
 preserveAspectRatio="xMidYMid meet">

<g transform="translate(0.000000,1024.000000) scale(0.100000,-0.100000)"
fill="#000000" stroke="none">
<path d="M4790 10079 c-514 -31 -1009 -142 -1511 -340 -838 -330 -1590 -907
-2144 -1644 -320 -427 -573 -908 -742 -1413 -162 -487 -237 -926 -250 -1464
l-6 -268 781 0 782 0 0 183 c0 375 51 697 166 1048 372 1140 1361 2033 2527
2284 376 81 850 96 1232 40 1246 -185 2302 -1060 2731 -2263 58 -163 129 -448
154 -619 25 -175 44 -461 38 -580 l-5 -93 780 0 780 0 -6 268 c-8 375 -38 641
-113 977 -321 1441 -1293 2690 -2615 3360 -791 400 -1668 579 -2579 524z m700
-90 c796 -55 1601 -323 2265 -753 438 -283 801 -605 1134 -1006 621 -747 1003
-1653 1101 -2614 16 -157 30 -498 23 -570 l-6 -66 -687 0 -687 0 -6 233 c-6
248 -20 376 -67 607 -150 746 -561 1443 -1153 1953 -559 482 -1239 772 -1966
837 -171 16 -622 7 -781 -14 -493 -68 -918 -216 -1325 -460 -727 -437 -1276
-1113 -1542 -1901 -117 -347 -167 -638 -180 -1047 l-6 -208 -690 0 -690 0 6
278 c6 282 18 406 62 682 109 673 404 1390 808 1965 562 799 1331 1409 2217
1758 694 274 1402 380 2170 326z"/>
<path d="M5230 9730 c0 -23 7 -33 30 -45 17 -9 30 -22 30 -30 0 -36 -60 -597
-65 -605 -3 -5 -19 -11 -35 -15 -21 -5 -30 -13 -30 -26 0 -10 0 -22 0 -26 -1
-9 11 -11 360 -47 190 -21 290 -36 395 -63 125 -31 151 -34 245 -31 91 3 113
7 164 32 77 38 131 93 169 174 30 62 32 75 32 172 0 96 -3 110 -29 165 -39 78
-107 145 -188 183 -95 46 -359 117 -369 100 -15 -23 -10 -39 20 -67 l30 -28
-31 -114 c-17 -63 -52 -193 -78 -289 -42 -157 -49 -177 -74 -190 -35 -20 -47
-3 -35 49 24 95 24 89 -14 96 -56 11 -70 3 -108 -60 -29 -49 -41 -60 -60 -58
-108 9 -156 15 -167 22 -10 6 -10 35 1 145 8 75 17 140 21 143 13 13 95 -36
111 -67 12 -23 22 -30 44 -30 31 0 31 0 47 167 6 71 6 72 -19 78 -20 5 -35 0
-65 -24 -21 -18 -56 -35 -77 -38 l-38 -6 7 69 c19 195 16 184 47 184 15 0 61
-5 102 -11 l74 -11 23 -57 c30 -73 37 -80 90 -83 l45 -3 -3 61 c-3 44 1 71 13
94 20 38 14 45 -49 54 -36 5 -554 66 -563 66 -1 0 -3 -13 -3 -30z m305 -35
c294 -32 288 -31 274 -57 -6 -12 -9 -45 -7 -74 4 -45 2 -54 -11 -54 -28 0 -39
13 -66 77 -15 34 -33 64 -41 67 -25 10 -181 28 -210 24 l-29 -3 -15 -149 c-18
-168 -20 -163 58 -152 30 4 60 17 84 36 20 17 40 30 43 30 8 0 -5 -161 -15
-179 -5 -10 -13 -5 -29 17 -35 50 -161 97 -161 60 0 -6 -7 -79 -16 -161 -14
-135 -14 -151 0 -165 15 -15 207 -44 231 -35 6 2 20 20 30 40 33 61 55 83 82
83 20 0 24 -3 18 -17 -5 -10 -10 -46 -13 -80 l-4 -62 -42 5 c-59 7 -497 54
-504 54 -4 0 9 8 28 18 41 20 37 -4 76 386 l27 270 -34 28 c-31 27 -32 29 -9
24 14 -3 129 -17 255 -31z m678 -121 c135 -45 225 -120 268 -224 9 -22 14 -71
14 -135 0 -91 -3 -105 -29 -158 -57 -111 -142 -171 -267 -186 -83 -11 -160 -2
-303 36 -104 27 -139 43 -95 43 29 0 43 9 56 35 16 30 153 559 153 588 0 25
-23 57 -41 57 -5 0 -9 4 -9 9 0 9 121 -22 253 -65z"/>
<path d="M6146 9571 c-11 -18 -166 -612 -166 -636 0 -32 31 -45 104 -45 141 0
258 131 287 322 22 136 -10 246 -86 304 -41 31 -132 67 -139 55z m89 -58 c69
-35 103 -91 112 -188 15 -163 -70 -343 -184 -391 -45 -19 -142 -19 -149 1 -4
8 25 133 64 277 38 145 73 278 77 296 7 36 16 36 80 5z"/>
<path d="M4433 9702 c-147 -52 -222 -164 -231 -342 -10 -202 71 -361 216 -428
46 -21 64 -23 145 -20 72 2 102 8 137 26 180 94 246 324 160 556 -28 73 -105
157 -176 192 -74 36 -177 43 -251 16z m243 -45 c241 -122 260 -548 31 -681
-51 -30 -145 -48 -201 -39 -101 15 -205 104 -248 211 -19 49 -23 75 -23 182 0
117 2 129 28 182 35 70 112 143 176 163 69 22 174 14 237 -18z"/>
<path d="M4428 9649 c-71 -37 -99 -134 -79 -281 23 -172 62 -277 131 -352 94
-102 225 -74 261 57 16 57 5 213 -21 310 -62 234 -169 331 -292 266z m133 -32
c114 -76 201 -428 140 -563 -38 -84 -134 -93 -200 -19 -78 89 -123 234 -125
400 -1 98 1 114 21 146 39 62 104 76 164 36z"/>
<path d="M3885 9581 c-77 -26 -140 -53 -139 -59 1 -7 2 -19 3 -27 1 -11 13
-15 46 -15 l44 0 26 -82 c15 -46 51 -162 82 -258 58 -184 62 -225 29 -275 -9
-13 -33 -29 -54 -36 -32 -9 -44 -8 -70 5 -53 27 -81 108 -47 136 22 18 19 28
-15 45 -75 39 -151 1 -165 -83 -5 -33 -13 -46 -35 -57 -39 -20 -43 -29 -50
-110 l-5 -70 -83 -43 c-58 -30 -87 -40 -95 -34 -7 6 -39 65 -72 132 -50 101
-57 122 -45 130 23 15 81 12 114 -5 35 -18 47 -19 70 -2 17 12 14 20 -35 120
-30 59 -60 107 -67 107 -30 0 -50 -21 -56 -58 -6 -40 -50 -95 -70 -89 -6 1
-35 49 -64 106 -37 71 -50 106 -43 114 5 7 45 30 89 51 l79 38 46 -35 c60 -46
80 -51 114 -33 60 33 60 31 15 80 -25 28 -42 55 -42 70 0 31 -10 56 -22 56
-12 0 -529 -258 -542 -271 -6 -5 -5 -17 1 -31 8 -19 16 -22 51 -20 l41 3 135
-270 c75 -149 136 -277 136 -284 0 -8 -7 -20 -15 -27 -21 -17 -48 7 -65 61 -8
22 -17 42 -22 45 -5 3 -25 -5 -44 -17 l-36 -22 4 -80 5 -79 -73 -55 c-43 -32
-80 -53 -88 -50 -8 3 -39 39 -68 79 -29 40 -106 144 -171 231 -65 88 -121 165
-123 172 -3 7 2 27 11 45 15 29 15 34 0 56 l-16 24 -122 -92 c-67 -50 -126
-95 -131 -100 -6 -4 -2 -15 8 -27 14 -15 23 -17 47 -11 17 5 36 7 43 4 13 -5
331 -437 355 -481 9 -19 9 -29 -4 -53 -17 -32 -12 -70 8 -70 7 1 113 75 237
165 212 155 241 173 500 305 151 77 281 144 289 149 11 7 9 15 -11 42 -42 57
-42 62 3 32 39 -26 50 -28 133 -28 77 0 100 4 146 26 76 36 124 80 156 145 35
72 31 101 -56 370 -39 117 -70 223 -70 234 0 11 11 29 24 41 27 23 25 70 -3
68 -9 0 -79 -22 -156 -48z m127 -7 c-14 -10 -22 -26 -22 -45 0 -17 33 -131 72
-252 82 -251 90 -305 50 -369 -69 -111 -263 -174 -369 -119 -110 55 -113 218
-5 209 27 -2 36 -7 33 -18 -22 -78 4 -140 72 -174 100 -49 202 45 182 168 -13
74 -156 511 -173 524 -9 6 -30 12 -46 13 -21 1 9 14 94 43 69 23 127 40 129
38 3 -1 -5 -9 -17 -18z m-647 -245 c4 -17 20 -46 37 -65 l30 -34 -25 -11 c-22
-10 -31 -7 -71 20 -25 17 -48 36 -51 41 -3 6 -14 10 -23 10 -15 0 -184 -82
-209 -102 -9 -7 5 -44 55 -144 37 -74 70 -134 75 -134 4 0 25 12 46 26 37 24
71 81 71 120 0 8 5 12 10 9 13 -8 93 -165 87 -171 -2 -2 -22 3 -45 12 -44 18
-116 13 -147 -10 -16 -11 -11 -24 59 -164 64 -129 80 -152 99 -152 12 0 63 22
112 49 l90 48 5 77 c4 62 9 81 24 92 28 20 36 18 36 -12 0 -29 14 -60 42 -90
l19 -22 -63 -35 c-75 -42 -425 -217 -434 -217 -3 0 2 7 10 16 9 8 16 24 16 35
0 19 -262 553 -281 573 -4 5 -25 12 -46 15 -36 6 -30 10 205 129 134 67 247
122 252 122 4 0 11 -14 15 -31z m-894 -497 c-6 -12 -11 -29 -11 -39 0 -19 360
-512 384 -525 15 -8 106 46 167 100 l36 31 -5 77 c-4 58 -1 78 9 85 21 13 24
12 38 -28 8 -20 25 -48 39 -62 l25 -25 -24 -18 c-13 -9 -103 -75 -201 -147
-97 -71 -188 -137 -202 -147 l-27 -17 18 31 c13 23 15 35 6 53 -16 35 -341
481 -366 502 -16 14 -30 17 -57 12 l-35 -6 35 22 c19 12 66 46 104 76 70 55
86 61 67 25z"/>
<path d="M6690 9454 c-8 -20 -6 -31 10 -51 11 -14 20 -32 20 -39 0 -7 -46
-111 -102 -231 -99 -210 -102 -220 -103 -288 0 -83 18 -125 78 -186 74 -74
216 -128 300 -115 57 9 112 43 142 86 14 21 69 129 121 241 52 112 105 212
117 222 14 13 30 17 49 13 24 -5 31 -1 40 19 6 14 9 27 7 29 -2 2 -49 26 -104
52 -55 27 -103 49 -106 51 -3 2 -11 -8 -19 -22 -12 -23 -11 -28 15 -55 28 -29
28 -32 15 -68 -7 -20 -54 -122 -105 -227 -114 -236 -135 -259 -231 -253 -71 4
-104 23 -142 79 -19 27 -23 43 -19 79 6 45 185 447 216 483 11 14 24 17 51 12
33 -6 38 -3 49 22 7 15 9 29 4 30 -5 2 -73 35 -151 73 l-143 69 -9 -25z m151
-79 c84 -40 107 -54 86 -55 -16 0 -36 -4 -46 -10 -25 -13 -229 -454 -237 -512
-15 -107 77 -198 200 -198 73 0 113 23 154 88 34 52 199 401 208 439 5 17 0
34 -15 53 -11 16 -21 31 -21 34 0 7 159 -68 160 -75 0 -3 -14 -6 -31 -7 -53
-1 -41 18 -246 -411 -37 -76 -87 -128 -136 -142 -157 -42 -376 107 -377 257 0
54 11 84 115 304 47 102 89 197 92 212 3 17 -1 37 -11 53 -9 14 -15 25 -13 25
2 0 55 -25 118 -55z"/>
<path d="M7449 8977 c-70 -20 -130 -60 -193 -127 -161 -175 -178 -397 -41
-548 34 -38 141 -102 171 -102 7 0 51 -36 98 -81 69 -65 89 -79 107 -74 17 6
20 12 15 37 -3 16 -1 38 4 49 11 20 80 59 102 59 7 -1 49 -36 92 -80 l79 -78
-23 -57 c-25 -63 -39 -73 -75 -57 -19 9 -28 8 -40 -4 -8 -9 -15 -19 -15 -22 0
-4 43 -50 96 -102 52 -52 141 -155 197 -229 56 -73 108 -140 114 -149 11 -14
15 -13 33 3 14 13 17 22 10 36 -27 49 -17 59 195 224 71 55 164 128 207 162
l78 63 40 -51 c45 -57 44 -56 29 -96 -6 -15 -17 -47 -25 -70 -12 -41 -12 -44
12 -73 14 -16 31 -30 38 -30 7 0 25 18 42 40 21 30 40 43 72 51 23 6 42 16 42
21 0 10 -90 131 -244 328 -49 63 -123 158 -164 210 -41 52 -76 97 -79 99 -2 3
-23 -16 -47 -41 -26 -27 -56 -48 -75 -51 -34 -7 -40 -27 -20 -71 15 -31 34
-36 111 -26 35 4 68 5 73 3 6 -2 27 -27 49 -54 37 -48 38 -51 20 -64 -11 -7
-107 -81 -214 -164 -246 -191 -266 -205 -285 -197 -17 6 -55 80 -55 106 0 8
63 173 140 365 l139 350 -24 24 -24 24 -208 -98 c-114 -54 -221 -106 -238
-116 -40 -23 -217 -100 -222 -95 -2 2 10 9 26 15 16 7 38 23 50 35 l21 22 -23
23 -24 22 -52 -27 c-73 -38 -147 -43 -199 -14 -45 25 -82 83 -82 127 0 121
150 353 274 424 104 59 205 22 206 -76 0 -56 -24 -89 -60 -81 -26 5 -29 2 -35
-34 -13 -76 46 -129 126 -113 38 7 86 63 95 108 36 193 -208 381 -417 322z
m228 -52 c67 -33 136 -110 153 -170 26 -91 -6 -167 -77 -181 -26 -5 -37 -1
-57 19 -35 35 -33 52 11 74 44 21 63 53 63 108 0 112 -116 167 -235 111 -127
-59 -305 -326 -305 -459 0 -49 38 -115 83 -145 54 -36 160 -38 224 -4 23 12
47 22 54 22 17 0 -9 -28 -42 -45 -111 -58 -243 -23 -330 87 -110 139 -86 330
61 492 48 52 127 102 184 117 54 14 156 1 213 -26z m543 -446 c0 -6 -56 -151
-124 -322 -155 -393 -150 -378 -136 -423 7 -19 10 -37 8 -39 -2 -2 -47 40
-101 93 l-97 97 41 0 42 0 32 77 33 77 -99 96 -98 95 -65 -32 c-66 -32 -95
-69 -82 -103 11 -28 -10 -15 -69 46 -46 47 -54 59 -35 53 54 -17 98 -2 340
115 395 192 410 199 410 170z m300 -321 c52 -67 150 -192 217 -277 67 -86 122
-161 123 -167 0 -6 -14 -17 -30 -24 -17 -7 -41 -26 -54 -43 -44 -56 -62 -5
-26 78 11 26 20 54 20 62 0 9 -23 46 -52 84 l-52 68 -40 -30 c-23 -17 -140
-108 -261 -203 l-220 -173 1 -42 c0 -23 -2 -38 -6 -34 -28 31 -150 192 -150
197 0 4 11 -1 24 -9 21 -14 28 -14 58 -2 41 18 502 374 506 391 3 13 -85 132
-103 139 -5 2 -41 0 -80 -4 -60 -8 -72 -7 -82 8 -19 24 -17 28 22 42 19 7 43
23 53 36 9 14 22 24 27 24 6 0 53 -54 105 -121z"/>
<path d="M7888 8314 c-82 -41 -148 -76 -148 -78 0 -2 42 -42 93 -89 l93 -86
54 132 c29 73 60 147 67 165 11 25 11 32 1 31 -7 0 -79 -34 -160 -75z m108 -6
c-7 -18 -28 -69 -46 -113 -19 -44 -35 -81 -36 -83 -2 -4 -108 107 -112 117 -1
5 187 106 206 110 1 1 -4 -14 -12 -31z"/>
<path d="M2143 8550 c-88 -18 -138 -53 -298 -208 -121 -118 -126 -124 -110
-142 15 -17 19 -17 52 -3 l36 15 214 -214 c117 -117 216 -221 219 -230 9 -31
-5 -52 -50 -75 l-43 -21 -39 22 c-82 47 -460 298 -472 314 -8 10 -11 29 -7 48
4 22 0 35 -14 48 -18 16 -21 13 -81 -81 -35 -54 -63 -102 -63 -108 0 -5 73
-116 162 -245 89 -129 158 -236 154 -237 -4 -1 -136 17 -293 41 -197 30 -289
40 -298 33 -10 -8 -73 -105 -126 -194 -4 -8 2 -17 19 -25 22 -10 28 -8 48 10
13 12 34 22 48 22 19 0 359 -215 494 -312 5 -4 12 -31 15 -60 4 -44 9 -54 26
-56 17 -2 32 16 82 103 34 59 59 111 56 116 -8 14 -45 11 -63 -5 -41 -35 -53
-30 -232 89 -101 67 -165 115 -153 115 26 0 515 -69 533 -75 17 -7 51 23 51
44 0 9 -67 116 -149 239 -83 122 -148 222 -145 222 11 0 320 -208 333 -223 11
-14 11 -22 1 -48 -11 -26 -11 -32 1 -40 31 -19 48 -5 114 91 46 68 113 145
204 235 126 125 135 135 120 151 -14 14 -22 14 -52 5 -44 -15 -56 -9 -121 58
l-49 50 46 51 c26 29 61 81 79 117 56 113 42 241 -34 309 -54 50 -136 70 -215
54z m157 -48 c20 -11 48 -39 65 -67 61 -98 28 -234 -86 -360 l-51 -55 68 -70
c73 -76 95 -87 137 -71 15 6 27 9 27 8 0 -1 -43 -45 -96 -97 -53 -52 -91 -85
-85 -73 24 48 15 61 -201 282 -117 119 -222 222 -234 228 -17 10 -30 10 -50 3
-15 -6 -28 -9 -29 -8 -5 9 250 240 287 259 101 52 175 58 248 21z m-684 -457
c-16 -44 25 -76 418 -329 116 -75 130 -80 167 -60 24 12 29 12 22 2 -20 -34
-145 -208 -148 -208 -3 0 0 12 6 26 7 21 6 32 -7 51 -13 21 -442 313 -459 313
-3 0 78 -124 180 -276 178 -263 205 -314 158 -300 -10 3 -133 21 -273 41 -140
19 -282 40 -314 45 -53 9 -78 7 -65 -4 16 -14 215 -147 313 -210 125 -80 156
-89 201 -60 20 13 17 3 -23 -68 -38 -67 -48 -78 -50 -58 -7 66 -9 68 -254 231
-132 89 -254 166 -270 171 -25 9 -34 7 -59 -11 -39 -29 -36 -18 19 64 39 58
52 70 77 73 17 1 161 -18 320 -42 160 -24 291 -43 293 -42 1 2 -77 119 -174
260 -102 150 -173 264 -170 272 8 22 86 134 92 134 4 0 4 -7 0 -15z"/>
<path d="M2038 8436 c-40 -15 -118 -72 -118 -88 0 -12 247 -273 279 -294 23
-16 25 -15 57 22 72 84 80 169 25 256 -35 55 -83 92 -136 107 -50 14 -61 13
-107 -3z m148 -46 c73 -45 114 -130 100 -205 -7 -33 -62 -109 -75 -103 -3 2
-62 60 -130 130 l-124 128 19 21 c52 59 141 71 210 29z"/>
<path d="M8921 7591 c-10 -6 -12 -20 -8 -44 4 -26 1 -39 -11 -50 -16 -14 -403
-237 -484 -278 -47 -24 -51 -24 -85 5 -24 20 -32 22 -50 12 -21 -11 -20 -14
65 -159 48 -81 91 -147 97 -147 6 0 19 6 28 13 15 10 16 17 6 46 -11 31 -10
36 12 55 14 12 134 83 268 160 258 147 248 143 302 104 19 -13 49 -5 49 14 0
24 -145 273 -160 275 -8 2 -21 -1 -29 -6z m93 -145 c31 -54 56 -100 56 -102 0
-2 -13 4 -29 14 -37 21 -27 25 -325 -145 -294 -167 -280 -156 -272 -207 8 -50
5 -46 -78 98 -47 83 -53 96 -32 82 14 -9 33 -16 43 -16 23 0 543 295 561 318
7 9 11 30 9 45 -5 38 3 28 67 -87z"/>
<path d="M9118 7269 c-11 -6 -18 -22 -18 -39 0 -16 -4 -40 -9 -53 -6 -14 -129
-139 -275 -278 l-265 -252 13 -31 c16 -40 11 -40 394 -22 336 15 366 13 409
-30 24 -24 48 -30 70 -16 9 6 0 39 -36 130 -27 68 -51 125 -53 128 -3 2 -18 0
-33 -6 -24 -9 -26 -14 -21 -43 3 -17 2 -38 -2 -45 -8 -11 -257 -31 -404 -32
l-36 0 126 123 c70 67 142 137 160 154 29 29 35 31 57 21 14 -6 25 -15 25 -21
0 -8 49 -2 58 8 2 2 -24 68 -57 148 -34 80 -61 150 -61 156 0 14 -19 14 -42 0z
m55 -116 c20 -49 42 -105 51 -125 l16 -37 -34 14 c-43 18 -43 18 -262 -192
l-168 -163 44 0 c25 0 140 5 255 10 209 10 210 10 233 37 17 19 22 33 17 52
-12 48 12 8 45 -74 17 -44 34 -87 37 -95 4 -10 -2 -7 -18 6 -59 53 -89 55
-514 34 -284 -14 -287 -14 -283 8 2 10 119 129 260 265 256 247 278 273 278
335 0 25 9 10 43 -75z"/>
<path d="M1142 7089 c-107 -21 -200 -104 -242 -216 -17 -46 -21 -73 -18 -129
9 -144 90 -253 245 -327 78 -37 96 -42 178 -45 169 -8 273 47 337 175 30 61
33 76 33 153 0 72 -4 94 -27 143 -81 172 -312 285 -506 246z m181 -34 c187
-49 312 -176 324 -329 9 -101 -16 -169 -86 -237 -68 -67 -124 -89 -226 -89
-124 0 -224 39 -313 124 -130 122 -149 282 -49 423 72 102 210 145 350 108z"/>
<path d="M1055 6941 c-53 -14 -94 -40 -110 -71 -22 -42 -19 -116 5 -155 57
-92 309 -195 478 -195 76 0 126 15 165 50 30 26 32 33 32 93 0 79 -16 105 -96
158 -129 86 -371 148 -474 120z m184 -36 c152 -32 304 -107 341 -167 24 -39
26 -100 4 -133 -54 -82 -271 -70 -470 25 -106 51 -154 102 -154 164 0 106 105
148 279 111z"/>
<path d="M9038 6484 c-122 -29 -220 -100 -274 -196 -27 -49 -29 -61 -29 -153
0 -81 4 -108 21 -145 70 -147 259 -226 448 -187 150 31 244 95 298 204 29 59
32 75 32 152 0 101 -26 171 -88 234 -91 92 -255 129 -408 91z m277 -40 c71
-25 156 -112 176 -179 47 -163 -17 -317 -161 -390 -202 -103 -457 -47 -542
120 -30 57 -36 176 -13 246 32 96 141 183 270 216 65 16 205 10 270 -13z"/>
<path d="M9130 6339 c-149 -38 -298 -127 -336 -200 -30 -59 -9 -140 47 -180
31 -22 44 -24 139 -24 118 0 201 21 327 82 137 67 197 145 174 229 -13 48 -55
91 -102 104 -53 16 -167 11 -249 -11z m277 -35 c66 -49 67 -120 3 -184 -81
-81 -294 -160 -432 -160 -84 0 -132 18 -152 59 -48 91 23 181 198 252 115 47
170 58 268 56 70 -2 92 -6 115 -23z"/>
<path d="M829 6391 c-68 -37 -118 -115 -139 -215 -30 -147 35 -290 170 -373
115 -70 330 -85 442 -30 178 87 252 329 145 469 -40 51 -94 95 -128 103 -24 6
-27 3 -34 -31 -5 -27 -3 -40 6 -43 30 -10 99 -86 115 -127 29 -77 0 -165 -68
-200 -107 -55 -432 3 -528 95 -67 63 -63 163 8 204 40 24 92 14 107 -21 11
-26 34 -28 75 -7 57 29 57 119 1 169 -32 29 -125 32 -172 7z m155 -32 c33 -26
37 -86 6 -114 -20 -18 -21 -18 -48 8 -35 33 -72 42 -116 27 -71 -23 -112 -115
-87 -192 34 -104 232 -188 451 -191 94 -2 110 1 155 23 111 56 135 180 56 291
-14 20 -40 47 -58 59 -18 12 -33 29 -33 37 0 20 46 -6 86 -49 52 -55 68 -95
68 -174 1 -131 -80 -249 -201 -294 -72 -27 -207 -27 -292 -1 -171 53 -255 157
-255 316 0 86 20 146 69 210 48 63 147 85 199 44z"/>
<path d="M4920 8328 c103 -218 88 -315 -81 -509 -45 -52 -104 -127 -130 -168
-165 -249 -115 -574 107 -701 30 -18 61 -45 69 -61 8 -15 32 -40 52 -54 52
-35 32 -31 -34 6 -30 17 -57 29 -60 25 -10 -10 45 -74 90 -105 66 -45 137 -65
205 -57 69 8 145 42 195 86 38 33 73 87 63 97 -3 3 -29 -11 -58 -31 -60 -41
-84 -48 -41 -12 15 13 36 38 46 55 17 28 17 31 2 31 -9 0 -29 -8 -43 -18 -63
-42 -115 -57 -202 -57 -65 0 -94 5 -122 20 l-37 20 127 0 c109 0 134 3 174 22
69 31 137 99 169 168 70 145 15 327 -152 510 -63 69 -89 104 -89 122 0 7 7 10
15 7 9 -4 15 -1 15 7 0 7 8 2 17 -11 9 -14 50 -63 90 -109 43 -49 89 -116 111
-160 36 -73 37 -77 37 -190 0 -116 0 -116 -42 -204 -24 -49 -43 -91 -43 -93 0
-15 85 44 120 83 101 116 154 294 131 444 -18 112 -56 180 -171 305 -135 145
-155 180 -154 264 1 48 11 90 36 158 20 50 32 92 28 92 -19 0 -104 -79 -134
-125 -48 -72 -72 -137 -87 -235 -6 -46 -22 -107 -35 -135 -50 -114 -40 -210
29 -298 79 -100 107 -156 107 -214 0 -114 -71 -185 -191 -191 -59 -4 -74 -1
-112 21 -24 14 -57 45 -73 68 -27 39 -29 50 -29 128 0 76 4 94 32 154 18 37
67 123 109 190 102 162 150 262 165 347 21 120 -19 219 -128 322 -42 38 -119
88 -137 88 -3 0 17 -46 44 -102z m101 -35 c146 -160 131 -288 -74 -608 -105
-164 -139 -244 -145 -335 -4 -63 -1 -85 18 -128 39 -90 116 -142 212 -142 73
0 116 14 162 52 50 41 76 98 76 168 0 67 -20 111 -93 210 -63 85 -82 139 -73
204 8 48 26 73 26 35 0 -40 39 -104 108 -180 128 -141 176 -244 170 -364 -6
-111 -59 -195 -159 -250 -52 -29 -59 -30 -179 -30 -106 1 -134 4 -183 24 -177
70 -270 250 -239 462 19 132 74 230 222 394 45 50 85 108 108 155 33 67 37 83
36 150 -1 69 -14 118 -59 223 -14 33 13 17 66 -40z m262 -115 c-9 -24 -16 -77
-17 -118 -1 -96 18 -131 154 -276 152 -161 195 -274 171 -443 -12 -84 -72
-219 -114 -259 l-24 -23 18 53 c26 74 25 206 -1 289 -27 87 -66 150 -147 240
-38 42 -79 101 -93 130 -31 69 -28 66 -44 44 -34 -46 -28 141 8 243 19 53 87
162 102 162 2 0 -4 -19 -13 -42z m-73 -1353 c0 -13 -88 -26 -129 -19 -45 9
-45 9 34 15 44 3 83 6 88 7 4 1 7 0 7 -3z m2 -71 c-53 -23 -112 -27 -162 -10
l-45 16 55 -5 c30 -3 78 -1 105 4 72 13 84 11 47 -5z"/>
<path d="M6300 8038 c-25 -22 -68 -60 -96 -84 l-51 -44 -124 29 c-68 16 -125
28 -127 26 -2 -2 19 -56 47 -121 l51 -117 -24 -41 c-12 -23 -42 -72 -65 -109
-23 -38 -40 -71 -37 -74 2 -3 59 0 126 6 l122 11 58 -62 c31 -35 69 -78 84
-95 15 -18 31 -33 35 -33 4 0 20 55 35 123 15 67 30 125 34 128 4 3 54 25 112
49 58 24 109 46 113 50 4 4 -42 36 -102 71 -124 72 -116 56 -127 227 -4 56 -9
102 -13 102 -3 -1 -26 -19 -51 -42z m40 -127 c5 -56 12 -105 14 -110 3 -5 44
-30 91 -57 47 -27 85 -52 85 -55 0 -4 -44 -25 -97 -47 l-97 -40 -23 -103 c-13
-56 -25 -104 -27 -106 -2 -2 -36 32 -76 76 l-72 80 -104 -6 c-59 -3 -104 -2
-104 3 0 5 23 44 50 87 28 43 50 84 50 91 0 7 -15 46 -34 87 -58 128 -63 119
60 92 l106 -24 81 70 c45 38 83 68 85 66 2 -2 8 -49 12 -104z"/>
<path d="M3786 7928 c-4 -46 -10 -104 -13 -130 l-6 -48 -108 -66 c-60 -37
-109 -68 -109 -69 0 -2 51 -24 113 -50 61 -26 117 -53 123 -61 6 -8 22 -66 34
-129 12 -63 26 -115 31 -115 4 0 45 43 90 95 l83 96 70 -6 c39 -3 97 -8 129
-11 31 -3 57 -2 57 2 0 3 -29 54 -65 113 l-66 107 51 119 c27 65 48 120 46
122 -2 2 -59 -10 -127 -26 -118 -28 -125 -29 -144 -12 -11 9 -54 47 -96 84
-42 37 -79 67 -81 67 -3 0 -8 -37 -12 -82z m161 -84 l42 -36 103 26 c56 13
104 23 106 22 1 -2 -15 -45 -38 -95 -22 -51 -40 -98 -40 -104 0 -7 25 -53 55
-101 31 -49 54 -90 53 -91 -2 -1 -50 1 -108 6 l-105 9 -67 -72 c-38 -40 -68
-76 -68 -80 0 -5 -4 -8 -9 -8 -5 0 -17 39 -26 88 -27 130 -22 123 -129 166
-53 22 -96 42 -96 45 0 4 40 30 89 59 l89 53 7 82 c3 45 8 95 11 110 l6 28 41
-36 c23 -19 61 -51 84 -71z"/>
<path d="M7127 7401 l-105 -70 -99 39 c-54 21 -110 41 -124 45 l-26 7 34 -125
35 -125 -81 -104 -80 -103 122 -8 c67 -4 127 -9 133 -11 6 -2 43 -52 82 -111
81 -121 70 -125 127 37 l38 108 41 11 c75 19 206 60 206 63 0 3 -43 39 -95 80
-52 42 -96 80 -98 84 -3 4 -2 62 2 130 3 67 3 122 -1 122 -3 0 -53 -31 -111
-69z m80 -85 c-4 -73 -2 -108 6 -118 7 -8 45 -41 85 -73 40 -32 71 -59 70 -60
-2 -2 -46 -15 -98 -30 -52 -15 -100 -31 -106 -36 -6 -5 -25 -51 -43 -104 -18
-52 -36 -95 -40 -95 -3 0 -32 41 -65 90 l-59 90 -61 1 c-33 0 -82 4 -108 7
l-47 7 64 80 c36 44 65 89 65 100 0 11 -12 58 -25 104 -14 47 -23 87 -20 89 2
3 49 -12 104 -33 l99 -37 89 61 c48 33 90 60 92 60 2 1 1 -46 -2 -103z"/>
<path d="M2905 7353 c2 -32 7 -92 10 -134 l5 -77 -73 -56 c-86 -67 -131 -106
-126 -110 2 -2 54 -15 116 -31 62 -15 118 -32 126 -39 7 -6 31 -58 51 -116 21
-58 41 -109 45 -113 4 -4 29 25 56 65 26 40 61 90 77 111 l30 37 86 1 c48 0
103 3 124 7 l36 7 -65 80 c-106 131 -99 107 -63 240 18 64 30 118 27 121 -3 3
-56 -13 -117 -35 -61 -23 -116 -41 -121 -41 -4 0 -52 28 -106 63 -54 35 -104
66 -110 71 -10 5 -12 -7 -8 -51z m126 -61 l91 -59 101 37 c56 21 103 36 105
35 2 -2 -8 -42 -22 -91 -14 -48 -26 -96 -26 -106 0 -10 29 -54 65 -98 36 -44
65 -83 65 -85 0 -3 -35 -5 -79 -5 -133 0 -135 -1 -202 -102 -47 -72 -60 -86
-66 -71 -4 10 -21 56 -39 103 l-32 85 -102 27 c-56 15 -104 28 -106 31 -2 2
34 34 81 71 l85 67 -6 77 c-2 42 -7 92 -9 110 -2 17 -2 32 1 32 2 0 45 -26 95
-58z"/>
<path d="M2108 6677 c-18 -49 -23 -82 -23 -157 0 -87 3 -101 32 -161 41 -83
129 -168 243 -236 182 -108 403 -243 409 -249 3 -4 -38 16 -91 44 l-98 50 -60
-65 c-33 -37 -62 -64 -64 -62 -2 2 2 38 9 79 8 41 14 80 14 87 1 6 -43 35 -96
63 -54 29 -128 72 -164 96 -37 24 -69 44 -72 44 -15 0 -41 -135 -41 -215 0
-75 4 -99 25 -145 56 -120 100 -152 494 -355 192 -99 228 -122 110 -72 -129
55 -116 57 -175 -23 -28 -38 -53 -70 -53 -70 -1 0 0 42 1 94 l4 93 -99 43
c-54 24 -133 60 -176 82 -43 21 -82 36 -87 33 -4 -3 -14 -38 -21 -78 -24 -141
24 -285 125 -373 59 -52 170 -107 385 -194 171 -69 262 -110 245 -110 -6 0
-62 16 -125 35 -62 19 -117 31 -121 27 -5 -5 -24 -40 -42 -78 l-33 -69 -7 80
c-4 44 -8 86 -9 94 -1 9 -46 28 -117 51 -63 20 -139 47 -168 60 -29 12 -56 19
-60 16 -4 -4 -7 -56 -7 -115 0 -100 2 -110 33 -173 54 -110 188 -214 337 -262
44 -14 310 -85 555 -147 47 -12 86 -23 88 -24 1 -1 -4 -17 -11 -36 -8 -19 -17
-43 -22 -54 -6 -16 -11 -8 -24 40 l-18 60 -164 32 c-228 44 -212 46 -253 -34
l-34 -68 -7 78 c-4 42 -10 77 -14 77 -32 0 -261 44 -312 60 -35 11 -65 20 -66
20 -10 1 -12 -71 -3 -125 30 -185 156 -316 360 -371 50 -14 122 -19 305 -24
132 -3 215 -7 185 -9 -30 -1 -75 -6 -100 -9 l-45 -7 -5 -70 -5 -70 -29 53
c-34 60 -32 60 -191 37 -55 -8 -124 -15 -154 -15 l-54 0 7 -41 c32 -197 227
-309 521 -297 98 4 104 3 61 -7 -27 -6 -51 -16 -53 -22 -7 -19 31 -96 65 -135
83 -94 212 -102 445 -25 75 25 137 43 137 41 0 -3 -47 -27 -105 -54 l-106 -49
16 -37 c19 -46 59 -100 84 -114 65 -34 178 -17 354 54 59 23 107 42 107 40 0
-2 -9 -18 -20 -36 -28 -47 -27 -137 3 -202 l23 -50 -40 -40 c-30 -30 -61 -47
-132 -71 -118 -41 -193 -85 -265 -156 -47 -46 -59 -64 -69 -110 -23 -103 17
-179 95 -179 35 0 56 11 141 71 98 70 247 153 265 147 5 -2 -18 -25 -52 -52
-88 -71 -236 -221 -255 -258 -63 -120 59 -298 204 -298 59 0 112 43 217 175
98 123 277 325 284 319 3 -3 -44 -74 -256 -386 -82 -121 -93 -143 -93 -180 1
-81 65 -179 144 -221 51 -26 226 -36 265 -15 18 10 48 75 137 298 63 157 112
269 109 250 -15 -96 -67 -483 -72 -537 -4 -46 -2 -67 8 -79 13 -16 9 -16 -46
-10 -224 27 -570 118 -809 213 -1052 416 -1847 1344 -2086 2434 -34 155 -70
388 -70 457 l0 42 -780 0 -780 0 0 -66 c0 -37 9 -146 21 -243 90 -771 358
-1511 776 -2150 632 -965 1561 -1674 2653 -2026 768 -247 1643 -300 2450 -149
738 138 1465 460 2065 913 365 276 723 634 995 996 578 769 920 1697 983 2668
l4 57 -778 0 -778 0 -5 -32 c-2 -18 -14 -107 -26 -197 -65 -490 -248 -973
-533 -1403 -128 -195 -232 -322 -402 -497 -457 -468 -1007 -786 -1625 -941
-236 -59 -478 -96 -453 -69 19 20 16 70 -26 364 -22 149 -38 271 -37 273 2 1
50 -124 107 -279 85 -229 108 -283 127 -292 33 -15 185 5 250 33 65 28 138
105 148 154 3 21 4 59 2 87 -5 50 -20 77 -178 329 l-53 85 176 -168 c194 -187
231 -217 262 -217 33 0 137 89 163 140 29 57 29 129 1 187 -12 24 -57 84 -100
133 -44 50 -77 90 -75 90 20 0 122 -55 174 -94 84 -63 104 -69 148 -51 42 17
64 63 64 134 0 73 -25 126 -74 160 -59 41 -198 112 -293 151 -57 23 -84 40
-92 57 -6 13 -22 28 -35 34 l-25 12 27 40 c23 35 27 51 27 117 0 56 -5 83 -18
103 -9 15 -16 27 -14 27 3 0 37 -14 78 -31 101 -41 233 -79 279 -79 73 0 126
33 161 102 32 63 28 69 -77 118 -153 71 -136 70 91 -5 97 -32 216 -43 280 -25
56 16 127 77 154 133 31 64 28 72 -31 89 -53 15 -53 15 67 10 198 -7 352 41
436 136 39 45 79 134 79 177 0 23 -4 25 -47 25 -27 0 -97 7 -158 15 -160 22
-155 23 -192 -38 l-32 -52 -1 71 0 71 -52 7 c-29 3 -75 7 -103 8 -27 1 63 5
200 8 234 7 255 9 332 34 175 57 275 159 318 323 15 56 20 144 10 155 -3 3
-32 -3 -64 -13 -32 -9 -107 -25 -167 -34 -153 -24 -159 -26 -162 -61 -1 -16
-5 -49 -8 -74 l-6 -45 -34 68 c-41 80 -25 78 -253 34 l-165 -32 -14 -65 -15
-65 -16 48 c-9 26 -23 52 -31 57 -18 11 -43 4 290 90 328 85 418 113 488 152
80 45 169 133 205 202 30 58 32 67 32 173 0 61 -3 115 -7 119 -4 4 -38 -7 -76
-24 -38 -16 -110 -42 -161 -56 -52 -14 -96 -28 -99 -30 -2 -3 -9 -47 -15 -98
l-10 -93 -31 65 c-18 36 -35 70 -39 77 -7 12 -46 3 -204 -46 -128 -39 -67 -10
217 106 247 100 313 135 386 208 72 71 104 143 111 250 6 74 -12 185 -28 185
-5 0 -44 -17 -87 -39 -42 -21 -121 -58 -175 -81 l-99 -44 7 -93 c4 -51 5 -93
2 -93 -3 0 -28 32 -56 70 -28 39 -53 70 -56 70 -5 0 -77 -28 -137 -54 -81 -35
-31 -4 130 80 387 201 439 238 487 347 36 79 43 173 21 276 -9 41 -20 79 -25
84 -5 5 -32 -6 -68 -31 -32 -21 -107 -65 -166 -97 -81 -43 -107 -61 -103 -74
2 -9 7 -38 11 -66 3 -27 8 -63 11 -80 5 -27 0 -24 -59 40 l-65 70 -86 -42
c-47 -24 -86 -41 -86 -39 0 1 110 70 245 152 269 163 344 225 393 324 24 49
27 66 27 155 0 103 -24 215 -47 215 -6 0 -27 -15 -48 -33 -20 -19 -85 -63
-143 -98 -59 -35 -107 -68 -107 -74 0 -6 11 -50 25 -100 13 -49 23 -91 21 -93
-2 -2 -37 25 -77 61 l-73 64 -106 -70 c-58 -38 -137 -85 -176 -103 -40 -18
-74 -36 -77 -41 -2 -4 5 -52 17 -105 13 -54 20 -98 17 -98 -3 0 -43 32 -88 70
l-82 70 -138 -76 c-261 -145 -532 -264 -735 -324 -43 -13 -82 -28 -86 -34 -4
-6 -18 -45 -31 -86 -35 -114 -86 -228 -180 -405 -84 -159 -158 -286 -147 -252
3 9 11 55 18 102 15 108 1 217 -42 314 -42 97 -40 123 25 255 74 150 96 255
79 380 l-7 47 -37 -78 c-47 -101 -80 -137 -192 -214 -86 -59 -234 -133 -248
-124 -3 2 -84 9 -179 16 -133 8 -219 8 -371 -1 l-197 -12 -65 30 c-72 32 -167
94 -238 153 -50 42 -102 122 -121 187 -7 23 -16 42 -21 42 -4 0 -8 -51 -8
-113 0 -134 12 -182 82 -321 44 -89 49 -104 45 -150 -2 -28 -16 -79 -31 -113
-41 -96 -53 -200 -35 -311 8 -50 11 -88 8 -86 -11 7 -93 151 -162 287 -81 158
-124 259 -157 371 l-26 89 -109 33 c-61 19 -153 51 -205 71 -101 40 -432 200
-567 275 l-81 46 -86 -70 c-47 -38 -86 -66 -86 -63 0 3 9 48 21 101 11 53 19
97 17 99 -2 1 -37 19 -78 38 -41 20 -120 65 -174 101 -55 36 -104 66 -109 66
-5 0 -39 -27 -75 -60 -37 -33 -69 -60 -73 -60 -3 0 5 39 18 88 12 48 23 94 23
103 0 9 -37 38 -90 69 -50 29 -117 75 -149 101 l-59 47 -24 -61z m149 -69 c61
-40 118 -77 127 -83 16 -9 14 -20 -18 -140 -19 -71 -33 -131 -31 -133 2 -3 48
32 101 77 53 44 100 81 105 81 4 0 46 -24 91 -54 46 -29 116 -70 156 -90 41
-21 72 -43 72 -51 0 -9 -11 -68 -25 -132 -14 -64 -24 -117 -23 -119 2 -1 44
31 93 73 138 115 122 109 196 67 118 -67 460 -233 563 -272 55 -22 147 -54
204 -73 l102 -33 11 -41 c23 -88 75 -217 144 -355 72 -143 116 -223 308 -551
l97 -166 0 -84 0 -84 -24 50 c-27 57 -59 90 -80 82 -33 -13 -41 -84 -40 -377
0 -305 11 -408 55 -527 42 -111 305 -342 364 -319 8 3 12 12 9 21 -5 11 -2 14
10 9 11 -4 28 3 47 22 36 34 36 30 3 -49 -47 -111 -30 -184 64 -289 52 -57 79
-68 173 -68 65 0 88 4 116 21 45 28 117 118 138 174 20 52 12 102 -31 187 -29
58 -27 68 6 33 13 -14 32 -25 42 -25 12 0 18 -6 16 -17 -2 -14 3 -18 25 -16
59 4 122 47 229 153 166 165 177 200 185 625 5 282 1 358 -26 428 l-11 28 -28
-20 c-16 -11 -43 -46 -61 -78 l-32 -58 6 84 c5 79 9 90 67 195 34 61 90 159
124 217 173 291 308 565 356 721 l23 77 115 36 c63 20 163 56 221 80 103 42
427 202 540 266 l56 32 109 -91 c60 -49 110 -89 112 -87 2 1 -8 58 -22 126
-15 68 -26 127 -26 131 0 4 37 26 83 49 45 23 118 65 162 94 l79 53 98 -86
c54 -46 101 -83 103 -81 2 3 -11 64 -29 136 l-33 131 81 48 c44 27 100 64 124
82 23 18 47 30 51 27 16 -9 34 -136 28 -196 -8 -88 -46 -157 -125 -229 -65
-59 -387 -259 -737 -458 -151 -85 -305 -181 -305 -188 0 -4 62 20 143 55 l49
21 101 -95 c55 -52 102 -93 104 -91 2 1 -4 62 -14 134 -9 73 -15 133 -12 135
2 2 76 41 163 85 l159 81 85 -90 c47 -49 87 -88 89 -85 2 2 -3 59 -13 125 -9
67 -15 123 -13 125 2 1 45 24 94 50 50 27 111 63 137 82 26 18 49 30 52 26 14
-23 28 -142 23 -198 -16 -167 -69 -216 -455 -416 -394 -204 -640 -337 -622
-338 3 0 30 7 60 15 30 8 62 15 71 15 9 0 44 -41 80 -95 35 -52 66 -94 70 -95
3 0 5 59 5 131 l-1 130 144 60 c79 32 149 59 155 59 6 0 30 -29 53 -63 23 -34
56 -78 73 -97 l31 -35 -4 131 -5 131 147 67 c80 37 151 70 158 72 16 8 27 -74
20 -153 -14 -142 -95 -245 -251 -319 -51 -24 -184 -81 -297 -128 -428 -176
-645 -275 -609 -275 13 -1 39 5 166 34 18 4 36 -12 95 -86 85 -105 83 -106 77
57 l-3 92 155 46 c85 25 158 46 162 46 7 0 54 -94 95 -189 8 -18 16 -31 19
-28 3 2 10 64 17 137 l12 132 105 32 c58 18 120 40 139 50 47 25 54 13 49 -86
-8 -134 -59 -217 -188 -303 -89 -59 -116 -68 -519 -176 -185 -49 -367 -100
-406 -112 l-70 -22 92 -3 91 -3 27 -85 c15 -46 31 -86 35 -89 4 -2 17 40 29
94 22 97 23 99 54 105 73 16 290 56 299 56 5 0 33 -49 62 -109 l54 -109 5 46
c4 26 9 80 13 120 8 82 -6 73 144 97 52 8 117 21 145 29 27 9 51 13 54 10 3
-2 0 -36 -7 -75 -30 -172 -143 -292 -328 -344 -73 -21 -428 -30 -669 -17 -88
4 -161 7 -163 6 -1 0 -1 -59 0 -130 l3 -129 59 98 c32 53 64 97 70 97 20 0
240 -20 283 -26 l42 -5 3 -112 3 -112 55 93 55 94 40 -6 c22 -3 92 -11 155
-17 63 -7 116 -13 118 -14 1 -1 -7 -27 -18 -58 -39 -104 -132 -172 -280 -203
-95 -20 -232 -14 -425 20 -77 13 -142 23 -144 20 -9 -8 150 -74 243 -101 53
-15 96 -30 96 -34 0 -20 -66 -103 -101 -126 -40 -26 -50 -28 -138 -27 -91 0
-106 4 -311 72 -118 39 -233 74 -255 77 l-40 6 55 -35 c30 -20 118 -68 195
-107 77 -40 142 -73 144 -75 11 -10 -49 -92 -79 -107 -66 -34 -193 -4 -430
102 -109 49 -116 54 -142 100 -28 51 -89 91 -139 91 -61 -1 -140 -54 -231
-158 -108 -122 -288 -425 -322 -541 -29 -100 -18 -199 29 -251 12 -14 25 -43
28 -65 3 -22 28 -198 56 -392 28 -193 51 -365 51 -381 0 -63 -184 -194 -313
-222 -64 -15 -147 3 -244 51 -72 36 -171 121 -179 153 -3 12 20 203 51 424 56
394 57 403 85 430 53 53 64 151 29 255 -52 156 -229 444 -352 574 -133 141
-241 159 -325 57 -18 -21 -32 -44 -32 -51 0 -37 -400 -193 -495 -193 -47 0
-94 30 -122 77 -14 24 -24 45 -22 47 2 2 63 33 134 68 72 36 162 85 200 108
l70 42 -45 -6 c-25 -4 -139 -39 -255 -78 -203 -69 -213 -71 -310 -72 -89 -1
-104 2 -139 23 -36 22 -96 101 -96 126 0 6 42 23 93 38 85 26 251 96 244 103
-2 2 -68 -8 -148 -22 -257 -44 -391 -43 -524 7 -89 33 -180 129 -199 210 l-5
25 122 12 c67 7 138 15 158 18 l36 6 54 -92 54 -91 3 110 c1 61 6 111 11 111
4 0 77 7 161 15 85 9 159 14 166 11 6 -2 36 -46 65 -97 l54 -93 3 128 c1 71 1
130 0 132 -2 1 -71 -2 -153 -8 -83 -5 -256 -8 -385 -5 -221 3 -240 5 -315 30
-178 59 -275 168 -306 343 -6 36 -9 67 -7 69 2 2 24 -2 49 -9 25 -8 90 -21
145 -30 54 -9 109 -19 121 -21 24 -6 27 -18 39 -169 l6 -80 53 112 c30 62 58
112 63 112 19 0 326 -60 330 -65 3 -3 15 -49 27 -102 17 -73 25 -93 30 -78 5
11 21 52 36 90 l28 70 93 5 93 5 -90 27 c-49 15 -220 62 -380 103 -348 91
-400 107 -487 152 -147 76 -228 192 -235 333 -5 97 2 108 53 82 22 -11 84 -34
140 -51 l101 -31 12 -132 c7 -73 14 -134 16 -137 4 -3 34 58 86 177 10 23 22
42 26 42 14 0 305 -89 311 -95 3 -3 4 -57 3 -120 -1 -63 1 -115 6 -115 4 1 35
37 68 81 33 44 65 84 70 89 6 5 50 0 104 -11 52 -10 96 -17 99 -14 8 8 -317
150 -733 320 -269 110 -341 162 -398 283 -28 59 -32 78 -32 152 0 132 -10 129
170 47 l156 -71 -7 -133 c-4 -73 -4 -133 -1 -133 3 0 36 43 72 96 37 52 72 97
79 100 9 3 307 -111 312 -120 0 0 -2 -58 -5 -129 -3 -70 -3 -127 0 -127 3 0
34 43 70 95 35 52 70 95 77 95 8 0 39 -7 69 -16 30 -9 57 -14 59 -11 7 7 -143
90 -411 227 -317 163 -504 267 -552 306 -50 41 -99 136 -108 211 -6 45 9 183
21 205 2 3 30 -11 62 -32 31 -21 95 -58 142 -83 64 -34 84 -49 83 -63 -1 -11
-10 -65 -19 -122 -9 -57 -14 -105 -12 -108 3 -2 44 36 91 85 l86 89 165 -85
c148 -75 166 -86 161 -106 -4 -21 -35 -241 -35 -254 0 -3 47 39 104 95 l104
101 99 -39 c85 -34 94 -36 69 -16 -16 14 -122 77 -235 142 -422 241 -733 435
-794 496 -83 82 -112 149 -112 258 0 68 17 160 29 160 1 0 52 -33 113 -72z
m3658 -744 c-9 -43 -40 -121 -71 -184 -65 -131 -68 -165 -25 -267 63 -147 63
-298 -1 -435 -47 -103 -115 -158 -196 -158 l-37 0 52 24 c102 48 149 153 140
315 -6 119 -36 209 -84 257 -29 29 -40 34 -81 34 -48 0 -132 -35 -231 -96
l-45 -27 24 33 c13 18 56 66 96 106 l72 73 -44 26 c-25 15 -52 25 -61 23 -21
-4 -179 -182 -236 -265 -36 -54 -46 -62 -73 -63 -26 0 -36 8 -62 48 -39 61
-217 269 -241 281 -13 7 -31 2 -68 -19 l-50 -28 72 -74 c39 -41 82 -90 95
-109 l25 -34 -35 23 c-81 54 -194 102 -238 102 -38 0 -50 -5 -82 -37 -52 -53
-81 -136 -87 -249 -9 -154 35 -259 132 -315 47 -27 48 -29 21 -29 -41 0 -111
36 -142 73 -42 49 -81 142 -95 220 -15 92 0 199 43 299 43 103 41 148 -15 251
-52 95 -87 201 -86 261 l0 41 17 -25 c59 -87 222 -208 350 -260 62 -25 72 -26
137 -17 92 12 509 12 605 -1 71 -9 78 -8 146 19 129 53 297 178 346 257 30 50
35 25 13 -74z m-2897 -132 l51 -28 -69 -69 c-38 -38 -71 -67 -74 -64 -4 4 10
125 19 167 7 28 11 28 73 -6z m4257 6 c6 -26 25 -149 25 -161 0 -5 -31 20 -70
55 -38 35 -70 66 -70 70 0 7 88 57 102 58 4 0 10 -10 13 -22z m-2406 -254 c68
-73 185 -220 192 -243 3 -7 23 -8 56 -5 47 6 55 11 79 48 40 61 100 133 172
208 59 60 67 65 88 56 23 -11 22 -13 -47 -85 -77 -81 -149 -185 -149 -215 0
-14 19 -5 93 47 114 79 210 125 258 125 118 0 185 -291 105 -454 -21 -43 -40
-65 -74 -87 -62 -39 -96 -37 -187 11 -100 53 -111 52 -120 -6 -14 -93 -36
-143 -94 -216 -32 -40 -68 -81 -79 -92 -12 -10 -24 -34 -28 -52 -8 -46 -40
-47 -50 -2 -4 20 -32 60 -70 101 -75 81 -120 166 -130 243 -4 33 -12 58 -20
61 -8 3 -51 -13 -95 -36 -45 -22 -92 -41 -106 -41 -72 0 -152 75 -179 166 -12
43 -15 81 -11 148 9 156 65 256 142 256 54 0 203 -78 298 -157 99 -81 18 72
-109 206 -62 66 -63 68 -41 79 12 6 25 11 29 11 3 1 38 -33 77 -75z m-1861
-275 l-43 -61 -3 49 c-2 26 -1 63 3 80 l6 33 40 -20 39 -21 -42 -60z m4252 19
l0 -83 -40 55 c-22 30 -40 60 -40 66 0 9 54 42 73 43 4 1 7 -36 7 -81z m-2355
-515 c15 -24 52 -71 84 -106 53 -57 79 -97 64 -97 -3 0 -33 24 -67 53 -34 29
-84 69 -113 89 l-51 37 -8 -37 -7 -37 -8 40 c-4 22 -8 73 -8 114 -1 65 -3 72
-18 66 -10 -3 -31 -9 -48 -12 -20 -3 -6 8 45 35 l74 40 18 -71 c10 -38 29 -90
43 -114z m602 111 c-2 -2 -17 0 -34 5 -18 5 -34 7 -37 3 -3 -3 -6 -30 -6 -61
0 -31 -3 -81 -7 -111 l-6 -55 -17 39 -16 38 -99 -77 c-55 -43 -106 -82 -112
-88 -9 -6 -13 -6 -13 1 0 6 29 44 65 84 74 82 118 163 135 243 l11 55 70 -36
c38 -20 68 -38 66 -40z m-981 -19 c19 -8 54 -15 79 -16 25 -2 45 -4 45 -5 0
-2 -13 -23 -30 -47 -30 -44 -39 -77 -21 -77 5 0 24 23 42 51 23 36 45 57 73
70 l41 18 7 -82 c4 -45 10 -135 13 -199 5 -84 11 -118 19 -118 9 0 16 35 24
106 7 58 15 112 20 119 5 11 29 -4 97 -60 50 -41 101 -83 114 -92 32 -23 93
-21 124 3 13 11 62 49 108 87 46 37 87 67 91 67 8 0 24 -78 34 -162 4 -40 11
-58 20 -58 9 0 14 12 14 33 0 57 22 352 26 356 13 14 78 -35 110 -83 20 -31
40 -53 45 -50 10 6 -5 48 -31 84 l-20 28 48 7 c62 9 111 30 145 63 l29 27 -17
-40 c-9 -22 -38 -80 -64 -130 -27 -49 -51 -101 -54 -115 -4 -14 -7 -91 -7
-170 l-2 -145 42 -97 c24 -54 46 -98 50 -98 4 0 20 33 36 72 l29 73 3 -90 3
-90 -33 -27 c-41 -35 -49 -35 -100 2 -23 17 -43 29 -44 27 -11 -11 52 -247 66
-247 5 0 30 35 55 77 l45 78 0 -50 c0 -66 -25 -177 -50 -230 -26 -54 -179
-213 -244 -254 -58 -36 -71 -39 -56 -11 10 19 9 20 -27 15 -32 -5 -45 -1 -87
29 -27 20 -53 36 -58 36 -16 0 -8 -36 22 -99 50 -106 55 -140 30 -199 -14 -32
-44 -72 -80 -106 -49 -47 -65 -56 -94 -56 l-36 0 60 91 c33 51 58 94 56 96 -2
3 -32 -10 -65 -29 l-61 -33 -71 39 c-65 35 -70 36 -58 15 21 -41 86 -134 103
-148 9 -7 16 -17 16 -22 0 -14 -58 -10 -89 5 -26 14 -96 97 -120 143 -22 42
-13 106 29 203 23 51 38 95 35 98 -7 8 -73 -29 -96 -54 -17 -18 -28 -21 -61
-16 -30 4 -39 2 -34 -6 13 -22 -21 -12 -60 17 -21 16 -80 71 -130 122 -83 85
-94 101 -113 162 -21 70 -41 173 -41 217 0 18 12 6 50 -55 30 -47 51 -73 54
-64 18 50 58 259 50 259 -3 0 -24 -16 -47 -35 -48 -41 -57 -42 -92 -12 -25 21
-26 26 -23 102 l3 80 25 -67 c14 -38 28 -68 31 -68 4 0 25 45 48 99 l41 100 0
178 0 179 -30 48 c-17 26 -49 84 -71 129 l-41 81 36 -32 c20 -18 52 -39 72
-47z m-1453 43 c34 -12 32 -19 -25 -95 l-43 -57 -3 45 c-2 24 -1 63 3 87 5 36
10 42 23 37 9 -4 30 -12 45 -17z m4142 -10 c4 -18 5 -57 3 -85 l-3 -53 -43 56
c-24 31 -45 61 -48 67 -3 10 52 43 78 46 4 1 10 -14 13 -31z m-5591 -50 c3
-24 13 -99 21 -167 41 -331 158 -714 320 -1046 171 -350 384 -646 674 -935
344 -343 709 -590 1136 -768 301 -125 685 -225 960 -247 64 -6 96 -15 160 -46
44 -21 110 -46 147 -55 87 -21 151 -10 263 45 73 37 94 42 245 61 663 83 1245
332 1785 764 127 101 419 392 517 516 437 548 696 1178 763 1853 l7 67 694 0
695 0 -6 -62 c-36 -371 -68 -567 -135 -832 -222 -879 -653 -1640 -1290 -2276
-684 -685 -1501 -1128 -2463 -1335 -303 -65 -510 -86 -902 -92 -432 -7 -692
14 -1040 83 -1157 229 -2190 864 -2910 1789 -534 687 -873 1486 -994 2345 -11
80 -23 177 -26 215 -3 39 -8 91 -11 118 l-6 47 695 0 696 0 5 -42z m2842 -275
c10 -16 30 -66 45 -113 l28 -85 -21 -22 c-27 -29 -41 -29 -78 -1 -28 20 -30
27 -30 84 0 70 17 164 30 164 4 0 16 -12 26 -27z m1341 -109 l6 -91 -37 -22
c-36 -23 -56 -22 -89 3 -17 13 -16 18 12 96 17 45 43 98 57 118 l27 35 10 -24
c5 -13 12 -65 14 -115z m-1315 -163 c11 6 21 9 23 7 1 -2 -7 -28 -18 -57 l-21
-55 -17 40 c-9 21 -20 50 -24 63 -7 23 -6 23 15 8 17 -12 28 -13 42 -6z m1225
-2 c8 -8 17 -8 33 1 32 17 34 7 10 -47 -23 -52 -25 -52 -56 22 -14 35 -8 45
13 24z m-2277 -214 c0 -30 -2 -55 -4 -55 -6 0 -56 91 -56 101 0 5 14 9 30 9
30 0 30 -1 30 -55z m3385 8 c-41 -72 -45 -73 -45 -10 l0 57 36 0 36 0 -27 -47z
m-2302 -102 l-16 -63 -28 46 c-36 57 -36 64 -1 58 18 -2 33 2 41 12 21 25 21
16 4 -53z m1229 37 l29 11 -27 -47 c-44 -78 -50 -80 -63 -25 -7 26 -14 56 -17
66 -6 18 -5 18 21 1 22 -14 32 -16 57 -6z m-1324 -464 c101 -50 263 -263 388
-511 76 -148 92 -211 75 -287 -16 -74 -45 -99 -120 -104 -57 -4 -171 20 -171
36 0 4 16 23 35 42 59 58 64 132 13 187 -29 31 -77 43 -169 43 -124 0 -218
-41 -220 -94 0 -12 -9 2 -20 31 -21 55 -58 93 -91 93 -27 0 -68 -44 -68 -73 0
-43 36 -75 110 -98 38 -11 73 -18 78 -15 5 3 20 -6 32 -19 l23 -25 -54 0 c-75
0 -149 24 -181 57 -70 74 -53 243 23 243 31 0 31 19 0 66 -49 75 -53 173 -10
228 13 16 41 32 75 42 53 15 54 16 54 52 0 48 29 94 71 115 46 23 67 21 127
-9z m1509 1 c33 -22 56 -62 63 -108 5 -38 7 -40 60 -56 49 -14 57 -21 78 -61
26 -51 28 -96 8 -145 -16 -38 -27 -47 -19 -15 13 49 -45 120 -99 120 -40 0
-71 -34 -96 -106 -12 -32 -30 -76 -41 -96 l-19 -38 47 0 c58 0 136 22 163 47
21 18 21 18 9 -5 -10 -19 -9 -23 6 -28 68 -20 99 -76 86 -156 -14 -92 -78
-138 -201 -146 l-74 -5 26 26 c56 56 43 115 -32 150 -39 18 -65 22 -157 22
-96 0 -114 -3 -146 -22 -78 -49 -80 -141 -5 -216 l35 -35 -46 -16 c-26 -9 -56
-16 -67 -15 -12 0 0 6 27 13 26 7 50 16 54 20 4 4 -7 18 -25 32 -18 14 -39 39
-48 55 -35 68 -88 88 -134 51 -17 -14 -22 -28 -22 -59 1 -51 18 -81 57 -100
l30 -14 -34 6 c-62 10 -91 58 -91 153 0 90 78 259 217 469 165 249 294 341
390 278z m138 -320 c53 -52 13 -122 -83 -145 -29 -7 -56 -10 -59 -7 -9 10 36
130 59 154 28 30 53 29 83 -2z m-990 -47 c19 -8 31 -8 50 0 14 6 25 9 25 6 0
-10 -41 -64 -48 -64 -4 0 -20 16 -35 35 -31 38 -30 40 8 23z m-1072 -262 c3
-29 15 -72 26 -95 l21 -41 -72 -36 c-75 -38 -237 -144 -258 -170 -20 -23 -86
-18 -104 8 -24 34 -21 122 6 170 38 67 162 148 303 199 27 10 55 18 61 18 6 1
14 -23 17 -53z m2316 10 c122 -54 228 -115 261 -151 22 -23 25 -36 25 -100 0
-58 -4 -77 -19 -94 -29 -32 -67 -26 -122 18 -54 43 -152 94 -260 136 -70 26
-71 28 -53 46 30 30 50 78 56 135 3 30 7 54 9 54 2 0 48 -20 103 -44z m-2156
12 c20 -16 60 -108 46 -108 -18 0 -75 27 -92 44 -21 22 -22 40 -1 60 19 19 25
20 47 4z m418 -35 c75 -29 84 -100 21 -165 -33 -35 -50 -36 -27 -2 9 14 14 28
11 31 -19 20 -228 -189 -400 -401 -72 -87 -143 -167 -160 -177 -98 -60 -246
48 -246 179 0 48 29 89 131 188 124 120 209 186 227 178 26 -10 166 -17 207
-10 l36 7 -50 48 c-50 46 -59 64 -43 87 33 50 207 72 293 37z m1266 2 c59 -18
88 -45 78 -74 -3 -12 -26 -38 -51 -58 -24 -21 -44 -41 -44 -45 0 -14 184 -9
235 7 30 8 54 11 64 5 31 -17 229 -226 260 -274 33 -54 40 -110 20 -163 -12
-34 -83 -109 -122 -129 -26 -14 -31 -14 -54 2 -33 21 -449 436 -531 529 l-62
70 34 -60 c57 -103 106 -184 216 -360 144 -229 143 -227 138 -296 -7 -102 -79
-166 -219 -195 -84 -17 -139 -15 -150 6 -5 8 -58 148 -118 310 -60 162 -121
326 -136 364 l-26 69 49 -7 c60 -8 140 8 205 40 26 14 47 26 47 28 0 2 -18 15
-40 30 -47 31 -80 79 -80 117 0 36 34 77 73 88 50 14 158 12 214 -4z m-380
-131 c10 -14 29 -39 42 -55 13 -16 21 -33 17 -36 -3 -3 -26 -7 -50 -7 -55 -1
-86 24 -86 69 0 57 45 75 77 29z m-853 -140 c49 -18 91 -26 138 -27 l66 0 -13
-36 c-41 -115 -269 -680 -281 -698 -13 -21 -22 -23 -102 -23 -129 1 -203 43
-252 145 -35 72 -29 91 71 237 50 73 134 199 188 280 53 81 100 147 105 147 5
1 41 -11 80 -25z m863 0 c-3 -3 -12 -4 -19 -1 -8 3 -5 6 6 6 11 1 17 -2 13 -5z"/>
<path d="M4635 5370 c-17 -3 -42 -14 -57 -24 -58 -38 -77 -108 -30 -114 19 -3
22 -9 22 -49 0 -61 25 -99 84 -128 53 -27 172 -37 149 -14 -8 8 -4 17 15 34
14 12 31 37 37 56 l11 33 35 -47 c56 -76 65 -57 24 46 -56 139 -185 231 -290
207z m130 -55 c61 -35 112 -96 56 -66 -15 8 -18 6 -18 -19 0 -46 -28 -80 -67
-80 -71 0 -95 82 -38 130 60 50 -3 56 -85 9 -61 -35 -78 -32 -42 7 53 58 117
64 194 19z m-97 -167 c37 -40 93 -39 133 2 27 27 30 27 24 7 -9 -30 -61 -77
-86 -77 -68 0 -130 84 -111 150 6 22 7 20 10 -15 2 -26 12 -49 30 -67z"/>
<path d="M5489 5366 c-76 -27 -144 -93 -188 -183 -30 -60 -40 -113 -22 -113 5
0 22 20 38 45 30 49 43 56 43 26 0 -11 15 -36 34 -55 18 -20 29 -36 24 -36 -5
0 -6 -4 -3 -10 11 -19 99 -11 145 13 57 29 82 64 88 126 4 41 8 50 26 53 73
11 -47 149 -129 148 -11 -1 -36 -7 -56 -14z m130 -44 c59 -44 53 -80 -6 -39
-43 29 -85 42 -110 33 -14 -6 -11 -11 15 -37 55 -54 35 -129 -33 -129 -39 0
-64 25 -72 74 l-6 37 -30 -28 c-24 -23 -28 -24 -18 -7 16 33 96 99 133 112 42
14 96 7 127 -16z m-40 -163 c-16 -39 -64 -79 -96 -79 -28 0 -93 58 -93 83 0
11 9 6 29 -14 61 -60 159 -19 163 68 l1 38 4 -34 c3 -18 -1 -46 -8 -62z m31
-16 c-11 -17 -11 -17 -6 0 3 10 6 24 7 30 0 9 2 9 5 0 3 -7 0 -20 -6 -30z"/>
<path d="M4969 5002 c-66 -70 -65 -66 -26 -114 46 -57 93 -143 107 -196 13
-52 45 -72 85 -54 14 6 25 19 25 27 0 29 57 140 104 202 l48 63 -20 27 c-26
36 -82 89 -82 78 0 -4 14 -30 31 -57 l31 -48 -26 -30 c-33 -40 -90 -144 -106
-192 -8 -26 -17 -38 -30 -38 -13 0 -22 12 -30 38 -16 48 -73 152 -106 191
l-26 31 32 51 c17 28 29 53 27 55 -2 2 -19 -13 -38 -34z"/>
<path d="M4865 4299 c-73 -35 -78 -35 -150 -4 -32 14 -60 24 -62 21 -8 -8 119
-247 130 -243 11 3 152 246 146 251 -2 2 -31 -10 -64 -25z m-49 -50 c20 7 38
10 41 7 3 -3 -12 -35 -33 -70 -21 -36 -41 -63 -45 -58 -4 4 -24 37 -44 74
l-36 67 41 -16 c35 -14 47 -15 76 -4z"/>
<path d="M4950 4325 c0 -6 128 -229 143 -249 14 -19 17 -16 62 55 27 40 63
102 82 135 l33 61 -84 -34 -84 -33 -76 34 c-42 19 -76 33 -76 31z m115 -80
c34 -15 41 -15 81 1 24 9 46 15 48 13 3 -2 -16 -37 -41 -77 -51 -82 -44 -83
-103 21 -17 31 -30 57 -27 57 2 0 21 -7 42 -15z"/>
<path d="M5300 4319 c0 -31 129 -254 141 -242 12 12 139 235 139 245 0 4 -31
-6 -69 -22 -39 -17 -75 -30 -80 -30 -6 0 -38 13 -71 29 -33 16 -60 25 -60 20z
m217 -56 c-2 -5 -21 -39 -42 -76 l-37 -68 -40 66 c-22 37 -38 69 -35 72 3 2
20 0 39 -7 26 -9 41 -8 73 4 49 18 47 18 42 9z"/>
<path d="M4666 4015 c21 -51 103 -197 119 -214 11 -11 23 6 76 113 34 69 60
128 57 131 -3 4 -33 -8 -67 -24 l-61 -31 -66 30 c-37 16 -68 30 -70 30 -2 0 4
-16 12 -35z m88 -40 c32 -14 39 -14 66 0 50 26 53 17 14 -55 -21 -38 -41 -70
-44 -70 -3 0 -23 32 -44 70 -20 39 -35 70 -33 70 3 0 21 -7 41 -15z"/>
<path d="M4960 4042 c0 -11 120 -225 135 -241 11 -11 17 -7 38 26 40 63 118
215 113 220 -2 2 -31 -9 -65 -26 -33 -17 -67 -31 -76 -31 -9 0 -42 14 -75 30
-64 32 -70 34 -70 22z m184 -72 c22 11 42 17 44 16 1 -2 -16 -36 -39 -75 -23
-40 -45 -69 -49 -64 -5 4 -25 38 -45 75 l-37 68 42 -19 c41 -18 44 -18 84 -1z"/>
<path d="M5303 4019 c33 -77 111 -229 117 -229 9 0 140 223 140 238 0 6 -29
-3 -65 -19 l-65 -29 -63 32 c-34 18 -66 34 -70 36 -4 2 -2 -11 6 -29z m157
-55 c22 9 40 13 40 10 0 -11 -73 -124 -79 -124 -6 0 -71 124 -71 135 0 2 16
-5 35 -16 33 -20 37 -20 75 -5z"/>
<path d="M4582 3735 l-31 -38 -41 15 c-22 9 -40 14 -40 12 0 -30 109 -179 122
-166 9 9 32 186 26 204 -2 6 -18 -6 -36 -27z m0 -87 l-4 -42 -26 29 c-24 28
-24 30 -6 33 10 2 23 8 29 13 5 5 9 9 10 9 0 0 -1 -19 -3 -42z"/>
<path d="M5304 3744 c9 -39 67 -197 76 -207 7 -8 113 154 131 199 11 30 10 30
-53 -2 -36 -18 -57 -24 -67 -17 -9 5 -34 20 -55 33 l-39 24 7 -30z m128 -56
l30 11 -16 -25 c-9 -13 -23 -35 -32 -49 -9 -14 -20 -25 -24 -25 -8 0 -40 83
-40 102 0 5 12 1 26 -9 21 -14 31 -15 56 -5z"/>
<path d="M4700 3754 c0 -27 129 -229 139 -218 11 13 91 200 91 213 0 15 -2 15
-63 -15 l-54 -27 -57 26 c-31 14 -56 24 -56 21z m141 -65 c18 6 34 9 36 7 3
-2 -8 -28 -22 -56 l-27 -52 -34 50 c-41 61 -41 65 -10 51 18 -9 33 -8 57 0z"/>
<path d="M4993 3740 c7 -29 109 -210 117 -210 10 0 134 220 128 226 -3 2 -29
-7 -59 -21 -67 -31 -78 -31 -141 1 -50 25 -51 25 -45 4z m87 -55 c27 -14 33
-14 60 0 43 22 44 20 11 -37 -16 -29 -35 -53 -41 -53 -6 0 -24 24 -40 53 -17
28 -28 52 -25 52 3 0 19 -7 35 -15z"/>
<path d="M5600 3665 c0 -52 4 -95 9 -95 11 0 131 129 131 140 0 5 -17 4 -37
-1 -35 -8 -41 -6 -66 21 -15 17 -30 30 -33 30 -2 0 -4 -43 -4 -95z m49 -12
c-14 -16 -14 -16 -23 22 -7 29 -7 29 13 11 16 -15 18 -22 10 -33z"/>
<path d="M5005 3447 c30 -72 98 -188 106 -180 20 20 118 208 110 211 -5 2 -32
-8 -60 -23 l-51 -25 -50 25 c-65 33 -72 32 -55 -8z m140 -66 c-13 -27 -29 -52
-33 -55 -5 -3 -22 18 -37 46 -24 45 -26 50 -9 44 37 -16 49 -16 74 -2 14 8 26
14 28 15 1 1 -9 -21 -23 -48z"/>
<path d="M9375 4270 c-8 -16 -15 -36 -15 -44 0 -20 66 -93 91 -101 14 -5 19
-15 19 -38 -1 -40 -25 -165 -33 -174 -11 -10 -583 93 -604 109 -6 5 -13 24
-15 41 -2 26 -8 33 -30 35 -31 4 -27 16 -62 -168 -13 -69 -46 -196 -71 -283
-26 -87 -46 -159 -44 -162 2 -2 16 -6 31 -10 24 -6 29 -3 38 19 5 15 16 29 23
31 11 5 504 -131 570 -157 23 -9 27 -16 27 -49 0 -33 4 -40 26 -45 14 -4 29
-3 33 2 4 5 26 74 50 153 33 114 39 146 29 152 -23 15 -42 10 -64 -18 l-22
-28 -287 83 c-158 45 -294 87 -302 94 -27 22 11 118 48 118 28 0 578 -98 589
-105 5 -3 10 -21 10 -39 0 -26 5 -35 23 -40 38 -10 47 -7 47 17 1 12 25 153
54 312 29 160 51 293 47 297 -4 4 -24 3 -44 -3 -43 -12 -90 -5 -108 17 -18 22
-37 17 -54 -16z m71 -26 c22 -9 52 -14 71 -11 18 3 33 4 33 1 0 -18 -101 -558
-105 -562 -3 -3 -5 6 -5 21 0 42 -10 56 -49 66 -110 27 -581 103 -604 97 -17
-4 -29 -15 -33 -31 -3 -14 -9 -25 -13 -25 -4 0 3 57 16 128 25 137 31 160 32
124 2 -64 3 -64 404 -133 215 -37 249 -41 261 -28 15 15 46 152 46 204 0 27
-7 37 -40 59 -46 30 -75 69 -66 91 7 18 5 18 52 -1z m-703 -552 c20 -18 567
-182 609 -182 9 0 26 12 37 26 12 15 21 21 21 15 0 -16 -69 -243 -75 -250 -3
-2 -5 12 -5 32 0 27 -6 40 -22 51 -21 13 -576 176 -600 176 -6 0 -24 -15 -41
-32 -21 -23 -28 -27 -23 -13 4 11 22 70 39 132 18 63 33 102 35 88 2 -12 13
-32 25 -43z"/>
<path d="M1293 4183 c-9 -3 -11 -17 -7 -42 4 -25 2 -41 -8 -48 -17 -15 -542
-223 -561 -223 -8 0 -22 11 -31 25 -13 20 -22 24 -39 19 -12 -3 -25 -9 -29
-13 -4 -3 15 -66 42 -140 28 -73 50 -139 50 -147 0 -19 18 -27 46 -20 22 6 24
10 18 44 -8 50 5 60 148 115 l117 45 13 -32 c20 -48 17 -112 -7 -135 -11 -11
-60 -44 -110 -74 -98 -58 -135 -100 -135 -154 0 -41 24 -100 52 -130 42 -44
109 -19 79 29 -16 26 -11 32 72 79 97 56 145 104 159 157 l11 43 26 -25 c87
-83 224 -69 271 29 23 48 27 157 9 233 -11 42 -85 239 -126 335 -15 35 -30 43
-60 30z m90 -183 c71 -187 77 -210 77 -301 0 -84 -21 -132 -70 -156 -76 -39
-160 1 -243 117 l-18 25 5 -55 c11 -110 -18 -152 -155 -227 -92 -51 -105 -64
-89 -93 15 -27 6 -37 -16 -19 -41 34 -57 126 -29 166 8 11 60 49 116 83 99 61
139 102 139 144 0 34 -33 138 -45 142 -14 6 -261 -88 -290 -110 -12 -8 -19
-26 -19 -49 -1 -20 -4 -33 -7 -29 -4 6 -56 144 -87 232 -3 9 5 5 21 -9 19 -17
33 -22 54 -18 52 10 541 208 568 229 23 18 26 26 21 56 -9 59 9 24 67 -128z"/>
<path d="M1360 3953 c-28 -9 -275 -106 -279 -109 -10 -8 33 -95 64 -132 46
-53 89 -68 156 -52 60 15 106 57 115 105 13 71 -25 198 -56 188z m17 -74 c7
-19 12 -53 12 -76 2 -109 -143 -163 -216 -80 -32 36 -59 94 -49 104 11 11 221
92 231 89 6 -1 15 -18 22 -37z"/>
<path d="M1543 3563 c-9 -3 -11 -17 -7 -42 4 -25 2 -40 -8 -48 -29 -23 -520
-273 -537 -273 -10 0 -26 9 -36 20 -21 24 -34 25 -60 6 -18 -13 -18 -15 5 -52
12 -22 77 -142 142 -269 66 -126 123 -234 128 -238 4 -5 28 7 54 27 29 22 62
37 91 42 25 3 45 10 45 15 0 4 -8 24 -17 44 -18 38 -24 40 -117 50 -32 3 -63
8 -68 11 -15 9 -79 145 -76 161 3 14 221 142 244 143 24 1 23 -109 -1 -172 -4
-11 0 -20 12 -26 14 -7 42 3 121 41 99 48 102 51 102 83 0 31 -3 34 -30 34
-41 0 -83 23 -104 55 -10 15 -16 28 -14 30 23 19 202 106 211 102 8 -3 33 -43
57 -90 l43 -85 -37 -47 c-40 -53 -46 -96 -20 -133 20 -29 27 -28 81 13 25 19
49 35 54 35 14 0 21 -41 9 -55 -12 -15 -448 -313 -487 -334 -19 -10 -25 -8
-40 9 -20 23 -42 25 -67 7 -17 -12 -11 -23 70 -148 48 -73 89 -136 91 -138 1
-2 14 1 28 7 21 10 24 17 19 37 -13 51 -9 59 55 107 35 26 69 48 75 48 6 0 22
-16 35 -36 34 -50 113 -119 166 -144 25 -12 71 -24 103 -27 158 -15 264 116
233 289 -15 84 -55 166 -147 299 -71 102 -178 295 -312 557 -45 88 -56 99 -89
85z m153 -270 c70 -136 122 -249 116 -251 -5 -1 -35 -20 -65 -42 -31 -21 -58
-36 -61 -32 -16 16 -3 65 29 107 42 54 42 53 -23 178 -32 61 -51 87 -64 87
-20 0 -253 -114 -262 -129 -3 -5 15 -31 42 -59 34 -37 57 -52 85 -57 20 -4 37
-11 37 -16 0 -7 -150 -89 -162 -89 -2 0 -3 43 -3 94 0 60 -4 99 -12 107 -9 9
-45 -6 -155 -63 -172 -90 -170 -87 -103 -216 l46 -89 77 -7 c55 -4 81 -11 90
-23 18 -25 15 -30 -23 -36 -19 -3 -49 -16 -66 -28 -26 -18 -33 -20 -45 -8 -15
16 -255 481 -250 486 1 2 11 -6 21 -17 10 -11 29 -20 43 -20 27 0 495 236 550
277 29 22 33 30 30 59 -2 19 -3 34 -2 34 1 0 60 -111 130 -247z m219 -384 c98
-141 131 -207 145 -290 20 -116 -16 -197 -107 -243 -97 -49 -241 15 -345 151
l-46 62 -84 -60 c-45 -33 -87 -67 -91 -75 -5 -8 -6 -29 -2 -47 5 -24 -13 -2
-69 82 -42 63 -76 117 -76 120 0 2 8 -3 18 -11 42 -37 56 -32 235 89 370 250
366 246 350 298 -6 19 -10 35 -8 35 2 0 38 -50 80 -111z"/>
<path d="M1760 2724 c-90 -63 -168 -118 -172 -122 -11 -11 77 -109 115 -128
119 -62 306 59 307 198 0 37 -55 159 -75 164 -5 2 -84 -49 -175 -112z m200 26
c38 -74 19 -155 -48 -210 -47 -39 -122 -64 -163 -55 -34 8 -119 79 -119 101 0
16 290 215 302 208 4 -3 17 -23 28 -44z"/>
<path d="M8629 3407 c-110 -58 -196 -259 -159 -373 16 -51 54 -100 90 -119 17
-9 56 -15 93 -15 86 0 136 27 270 144 59 52 121 99 137 106 37 15 92 6 115
-20 28 -31 31 -101 6 -153 -29 -60 -55 -81 -98 -81 -29 0 -41 7 -65 37 -37 46
-66 48 -110 8 -29 -26 -33 -36 -33 -79 0 -57 20 -86 72 -108 131 -56 276 60
329 261 46 171 -37 305 -189 305 -73 0 -151 -40 -251 -131 -116 -105 -153
-129 -195 -129 -65 1 -97 45 -86 118 8 53 58 112 95 112 13 0 36 -15 54 -35
39 -42 76 -46 111 -10 30 29 34 97 9 133 -38 55 -122 67 -195 29z m136 -17
c58 -22 66 -122 11 -136 -21 -5 -32 1 -59 30 -43 45 -82 48 -128 9 -36 -31
-68 -94 -69 -136 0 -70 54 -127 120 -127 50 0 91 25 195 120 115 104 183 142
255 142 155 0 214 -165 127 -356 -51 -111 -133 -172 -221 -163 -84 8 -123 80
-75 141 27 35 55 33 74 -4 9 -18 26 -32 43 -36 15 -3 33 -7 40 -10 24 -7 79
23 104 57 67 91 61 203 -14 249 -73 44 -131 20 -277 -114 -104 -95 -163 -127
-237 -127 -107 0 -159 58 -159 176 0 107 53 211 137 268 43 28 88 34 133 17z"/>
<path d="M8252 2757 l-24 -25 201 -258 c247 -317 251 -323 258 -373 5 -39 4
-41 -22 -41 -18 0 -28 -6 -32 -20 -8 -29 -22 -25 -89 22 -105 73 -167 92 -228
68 -25 -9 -26 -8 -19 18 5 15 8 53 8 84 0 69 -21 103 -86 136 -97 51 -210 2
-371 -162 -60 -61 -126 -131 -146 -155 -35 -42 -36 -44 -17 -57 11 -8 26 -11
35 -8 58 25 58 25 284 -186 217 -203 236 -226 204 -258 -10 -10 -7 -17 10 -34
l22 -22 36 34 c20 19 72 75 117 124 l81 88 -23 19 c-23 18 -24 18 -48 -1 -14
-11 -32 -20 -39 -20 -17 0 -204 169 -204 185 0 18 52 63 87 75 36 13 51 7 169
-70 81 -53 123 -66 174 -55 42 9 97 66 106 110 3 19 12 35 19 35 13 0 145 191
145 209 0 5 -7 14 -16 22 -13 10 -20 10 -44 -4 -42 -25 -54 -21 -95 29 l-37
45 58 97 c33 53 67 98 76 100 10 2 43 -2 73 -8 54 -11 55 -12 55 -45 0 -25 6
-37 22 -46 18 -10 24 -9 30 2 5 8 42 71 83 141 41 70 75 132 75 137 0 6 -11
14 -26 17 -18 5 -31 1 -48 -15 -16 -15 -35 -21 -69 -21 -37 0 -577 83 -697
106 -18 4 -31 -1 -48 -19z m390 -66 c343 -55 392 -59 426 -35 13 9 25 14 27
13 2 -2 -28 -56 -66 -119 -65 -109 -69 -113 -69 -78 0 26 -5 38 -17 42 -39 12
-158 34 -164 31 -3 -3 -36 -55 -74 -116 -75 -125 -75 -122 -10 -196 41 -48 74
-55 108 -25 18 14 20 15 15 1 -7 -17 -96 -159 -100 -159 -2 0 -3 22 -4 48 0
35 -7 59 -24 83 -32 45 -273 358 -355 460 -36 45 -65 84 -65 88 0 15 15 22 35
17 11 -3 163 -27 337 -55z m-437 -345 c19 -8 44 -30 55 -48 30 -49 26 -102
-15 -186 -19 -40 -33 -72 -31 -72 2 0 28 16 57 36 49 32 59 36 106 32 44 -4
67 -14 144 -66 50 -34 97 -62 105 -62 7 0 20 12 28 28 l15 27 1 -34 c0 -26 -9
-42 -39 -72 -60 -60 -104 -52 -249 47 -34 23 -75 45 -91 49 -40 9 -88 -14
-139 -67 l-43 -45 101 -94 c122 -113 143 -126 182 -111 24 9 17 -2 -40 -66
-39 -42 -79 -85 -91 -96 -20 -18 -20 -18 -11 15 10 33 9 35 -83 124 -50 50
-154 148 -230 218 -118 109 -142 127 -170 127 -18 0 -39 -6 -47 -12 -30 -26
48 60 140 155 106 110 163 154 224 173 55 17 80 17 121 0z"/>
<path d="M8410 2602 c1 -15 197 -257 208 -257 16 0 135 196 125 205 -4 4 -73
17 -153 29 -80 12 -153 23 -162 25 -10 2 -18 1 -18 -2z m185 -52 c128 -20 121
-11 72 -88 -24 -37 -48 -67 -54 -67 -10 0 -43 39 -118 139 l-29 39 29 -6 c17
-4 62 -11 100 -17z"/>
<path d="M7974 2250 c-22 -11 -58 -39 -80 -61 l-39 -41 115 -109 c63 -60 121
-108 129 -106 27 4 93 112 98 159 14 123 -114 214 -223 158z m130 -29 c39 -26
66 -70 66 -109 0 -38 -28 -98 -58 -126 -21 -18 -22 -17 -117 70 -52 49 -95 92
-95 95 0 9 43 45 80 68 43 26 86 27 124 2z"/>
<path d="M2140 2562 c-23 -18 -23 -22 -11 -46 10 -17 11 -32 5 -44 -5 -11 -87
-90 -182 -178 -198 -182 -222 -217 -222 -319 0 -49 6 -75 31 -124 87 -174 262
-254 392 -178 25 15 119 97 209 183 89 85 172 159 183 163 40 16 89 -28 69
-61 -21 -34 -320 -427 -345 -452 -26 -28 -29 -28 -60 -16 -30 13 -33 12 -51
-10 -10 -13 -15 -26 -11 -30 55 -51 273 -202 323 -224 127 -57 255 -46 325 28
71 73 82 155 35 254 l-29 62 54 0 c46 0 60 5 86 28 26 23 33 38 37 80 9 94
-44 163 -238 312 -63 49 -141 118 -173 154 -32 36 -63 66 -69 66 -5 0 -18 -10
-28 -22 -16 -20 -16 -25 -4 -43 8 -10 14 -27 14 -35 0 -20 -338 -343 -382
-366 -68 -35 -170 1 -219 80 -26 40 -21 111 10 155 37 51 369 351 390 351 10
0 24 -7 31 -15 16 -19 25 -19 44 1 15 14 19 14 50 -5 27 -17 51 -21 138 -22
58 -1 111 1 117 5 14 9 -97 115 -121 116 -9 0 -51 -13 -92 -29 l-76 -29 -74
81 c-41 45 -87 97 -103 115 l-29 34 -24 -20z m190 -216 c0 -4 -9 -2 -19 4 -40
21 -62 10 -169 -87 -278 -250 -318 -300 -310 -384 12 -123 166 -214 274 -163
50 24 392 349 400 381 4 13 2 35 -5 49 -6 13 -9 24 -7 24 8 0 125 -125 121
-129 -2 -2 -17 1 -32 6 -15 6 -38 7 -49 3 -12 -5 -99 -83 -194 -174 -95 -90
-189 -173 -208 -182 -94 -44 -185 -20 -272 72 -72 76 -103 148 -98 227 5 84
26 112 200 268 207 187 212 193 204 240 l-6 39 85 -94 c47 -52 85 -97 85 -100z
m242 7 c15 -15 28 -30 28 -34 0 -9 -150 1 -169 11 -9 5 3 14 40 28 69 27 68
27 101 -5z m158 -393 c169 -128 220 -191 220 -267 0 -51 -22 -80 -69 -93 -36
-10 -78 -2 -144 25 -13 5 -4 -13 27 -59 74 -109 84 -188 31 -268 -69 -104
-243 -104 -395 0 -30 20 -90 65 -135 100 -76 61 -78 63 -43 57 45 -8 33 -21
258 274 93 123 170 232 170 243 0 11 -5 29 -11 40 -14 26 -8 22 91 -52z"/>
<path d="M2705 1824 c-81 -102 -85 -111 -54 -135 41 -32 93 -44 129 -29 50 21
80 64 80 117 0 39 -5 50 -39 84 -21 22 -43 39 -48 39 -5 0 -36 -34 -68 -76z
m105 11 c43 -46 19 -127 -43 -149 -36 -13 -102 17 -93 41 11 28 91 132 102
133 6 0 21 -11 34 -25z"/>
<path d="M2558 1633 c-25 -32 -82 -107 -127 -168 -93 -123 -94 -115 4 -161 56
-27 81 -29 136 -12 131 39 201 199 136 310 -23 40 -75 88 -95 88 -5 0 -29 -26
-54 -57z m101 -14 c17 -16 36 -48 42 -70 29 -96 -61 -222 -169 -236 -46 -6
-132 27 -132 51 0 8 41 67 90 131 50 64 96 125 103 136 16 26 31 24 66 -12z"/>
<path d="M7560 1921 c-14 -5 -41 -16 -60 -26 -43 -21 -290 -196 -290 -204 1
-22 24 -36 62 -36 l42 0 162 -225 c210 -291 199 -271 174 -303 -24 -30 -24
-36 -5 -61 13 -18 20 -14 131 65 65 46 141 107 171 136 109 105 150 262 94
360 -44 77 -113 108 -223 101 -61 -5 -68 -3 -62 11 13 33 14 97 2 121 -22 41
-75 70 -127 69 -25 0 -57 -4 -71 -8z m151 -50 c46 -46 37 -102 -29 -189 l-26
-34 40 17 c64 28 96 35 152 35 63 0 107 -17 144 -56 98 -106 40 -284 -136
-415 -207 -155 -201 -151 -170 -104 21 32 18 36 -167 297 -188 264 -194 271
-236 266 -18 -2 -33 -3 -33 -2 0 2 48 37 107 80 190 137 292 167 354 105z"/>
<path d="M7470 1822 c-60 -33 -59 -41 9 -135 34 -48 66 -89 72 -92 14 -9 67
32 84 65 27 53 20 98 -24 141 -45 45 -84 51 -141 21z m121 -41 c38 -38 40 -91
4 -126 -13 -14 -28 -25 -33 -25 -5 0 -30 32 -57 71 l-49 72 23 18 c35 28 77
24 112 -10z"/>
<path d="M7631 1614 c-29 -15 -55 -32 -58 -39 -5 -14 212 -322 239 -338 23
-15 84 38 115 101 29 59 27 105 -6 170 -24 46 -87 107 -124 121 -48 19 -110
13 -166 -15z m168 -19 c43 -22 97 -90 111 -141 19 -68 -1 -120 -67 -177 -21
-18 -22 -17 -123 124 -56 78 -104 147 -106 154 -7 18 74 55 119 55 21 0 51 -7
66 -15z"/>
<path d="M3061 1704 c-10 -23 -9 -30 9 -49 11 -12 20 -29 20 -38 0 -16 -251
-508 -273 -535 -7 -9 -22 -11 -47 -7 -32 5 -38 3 -48 -19 -11 -25 -9 -26 171
-119 240 -125 365 -187 375 -187 4 0 13 21 20 46 8 31 25 58 47 79 19 17 35
37 35 43 0 11 -69 52 -88 52 -5 0 -37 -18 -71 -40 l-62 -40 -80 41 c-59 31
-79 46 -79 61 0 24 253 520 275 538 8 7 26 9 44 5 26 -6 32 -3 42 19 7 14 10
28 8 29 -5 5 -281 147 -284 147 -1 0 -7 -12 -14 -26z m128 -64 c53 -27 105
-56 115 -63 18 -13 17 -14 -10 -10 -16 2 -37 -2 -46 -9 -16 -11 -250 -453
-283 -533 -20 -47 -5 -68 83 -113 93 -49 119 -51 160 -17 42 35 79 47 103 34
19 -10 19 -11 -10 -44 -16 -18 -32 -47 -36 -64 -4 -17 -10 -31 -15 -31 -9 0
-491 248 -500 257 -3 3 9 2 26 -1 22 -5 37 -2 53 11 27 22 280 506 288 551 4
26 1 38 -17 57 -13 14 -20 25 -16 25 4 0 51 -22 105 -50z"/>
<path d="M6632 1449 c-87 -35 -202 -68 -395 -115 -150 -36 -287 -68 -304 -71
-18 -3 -33 -11 -33 -18 0 -30 13 -45 40 -45 15 0 33 -7 40 -15 11 -14 122
-473 136 -562 6 -40 4 -44 -25 -60 -17 -10 -31 -25 -31 -33 0 -40 11 -40 230
10 313 71 400 93 400 102 0 5 -9 26 -20 48 -12 24 -20 59 -20 90 l0 50 -35 0
c-49 0 -80 -33 -95 -103 -8 -35 -19 -58 -29 -61 -28 -9 -152 -36 -161 -36 -20
0 -40 49 -64 159 -14 62 -26 118 -26 122 0 26 112 -2 139 -34 15 -18 38 -22
59 -8 10 6 8 32 -14 127 -14 65 -30 123 -34 128 -11 12 -60 -20 -60 -38 0 -23
-48 -73 -80 -85 -27 -9 -30 -8 -35 12 -3 12 -14 60 -25 107 -11 47 -20 92 -20
101 0 17 33 29 133 49 l59 12 35 -41 c38 -45 84 -74 105 -66 7 2 25 9 41 15
l27 10 -24 37 c-14 21 -28 50 -31 66 -6 24 -4 27 19 27 15 0 30 -8 36 -20 24
-45 210 -531 210 -549 0 -11 -12 -28 -27 -39 -25 -18 -26 -22 -15 -46 l12 -26
52 21 c29 12 69 27 88 34 176 63 450 179 450 190 0 7 -7 18 -16 26 -26 22 -44
66 -44 110 l0 42 -37 -6 c-53 -9 -71 -32 -81 -106 -5 -37 -16 -69 -24 -75 -8
-6 -47 -22 -87 -36 -51 -18 -76 -22 -88 -14 -14 8 -186 430 -215 528 -11 37
-11 40 15 61 24 19 27 25 18 48 -6 15 -14 27 -18 27 -5 -1 -63 -23 -131 -51z
m98 -14 c-17 -18 -21 -31 -17 -53 5 -27 179 -481 208 -545 22 -49 60 -48 185
4 77 32 84 42 84 125 0 33 28 74 50 74 6 0 10 -15 10 -34 0 -19 11 -49 25 -69
13 -20 20 -39 16 -42 -11 -6 -380 -152 -446 -175 -27 -10 -59 -21 -70 -26 -14
-5 -12 -1 8 15 17 15 27 32 27 49 -1 35 -214 582 -232 593 -7 5 -26 9 -42 9
-16 0 -26 3 -23 7 8 7 217 91 231 92 5 1 -1 -10 -14 -24z m-236 -77 c-12 -19
-6 -76 12 -109 13 -26 14 -33 2 -40 -23 -15 -31 -10 -86 47 l-53 57 -84 -17
c-112 -22 -133 -31 -141 -60 -6 -25 42 -254 56 -270 12 -12 81 13 112 41 14
14 32 39 39 55 16 39 24 25 48 -87 18 -83 16 -100 -9 -71 -21 27 -96 49 -137
41 -21 -4 -41 -9 -44 -11 -8 -4 56 -276 71 -304 5 -10 19 -22 31 -25 24 -8
199 32 215 49 6 6 16 35 23 65 13 62 25 81 52 81 16 0 19 -8 19 -40 0 -23 7
-54 15 -70 8 -16 11 -31 7 -34 -17 -11 -510 -126 -539 -126 -3 0 6 11 21 25
14 13 26 31 26 40 0 20 -105 489 -125 561 -15 51 -28 64 -66 64 -10 0 -19 3
-19 8 0 5 252 69 558 141 2 1 0 -4 -4 -11z"/>
<path d="M3587 1453 c-15 -14 -6 -45 18 -66 25 -21 26 -23 11 -62 -8 -22 -53
-148 -100 -279 -47 -132 -92 -246 -98 -254 -8 -9 -23 -12 -44 -9 -30 5 -33 3
-39 -24 -4 -17 -5 -32 -3 -33 5 -4 303 -106 309 -106 4 0 9 11 11 25 4 20 -1
30 -23 46 -16 11 -29 28 -29 37 0 21 189 553 203 570 7 9 22 11 43 8 29 -6 33
-4 43 24 8 23 7 32 -2 35 -294 104 -287 102 -300 88z m168 -73 c64 -23 99 -39
84 -39 -42 -1 -68 -30 -95 -106 -91 -246 -174 -491 -174 -511 0 -12 12 -32 26
-43 36 -28 28 -27 -116 24 -73 25 -114 44 -98 44 56 2 72 31 178 330 55 156
100 288 100 292 0 5 -10 17 -22 29 -31 29 -11 25 117 -20z"/>
<path d="M4036 1294 c-138 -44 -239 -171 -267 -337 -34 -202 39 -361 200 -435
77 -36 185 -37 252 -4 53 26 112 80 134 122 14 28 14 31 -5 50 -29 29 -44 25
-74 -19 -15 -22 -46 -52 -68 -68 -35 -23 -51 -28 -104 -28 -114 0 -160 60
-158 210 3 215 99 419 207 439 102 19 167 -85 102 -162 -28 -34 -30 -41 -14
-75 20 -45 102 -63 145 -32 28 19 54 75 54 116 0 78 -86 182 -178 214 -70 24
-168 28 -226 9z m229 -43 c115 -51 173 -158 130 -240 -22 -44 -82 -56 -117
-24 -24 21 -23 29 7 65 43 51 28 142 -30 178 -39 24 -113 27 -154 6 -101 -53
-181 -249 -184 -451 -2 -89 1 -105 23 -145 47 -84 134 -117 228 -86 49 16 118
72 140 111 6 11 14 16 18 12 15 -14 -29 -77 -75 -107 -84 -56 -176 -63 -274
-21 -145 62 -217 238 -173 424 36 155 130 267 249 298 54 14 158 4 212 -20z"/>
<path d="M4682 1217 c-10 -12 -22 -38 -198 -416 -102 -219 -132 -265 -184
-276 -25 -5 -30 -12 -30 -35 0 -27 0 -27 83 -34 45 -4 103 -10 130 -13 47 -6
47 -5 47 24 0 22 -7 33 -25 41 -37 17 -39 34 -14 92 l22 52 86 -7 c151 -11
149 -10 166 -68 21 -69 19 -84 -9 -91 -26 -6 -44 -42 -29 -56 7 -7 249 -30
316 -30 23 0 27 4 27 28 -1 22 -9 31 -43 47 -42 20 -42 20 -89 160 -26 77 -77
237 -113 355 -37 118 -70 218 -73 221 -16 14 -60 18 -70 6z m45 -29 c6 -7 52
-148 103 -313 105 -340 127 -394 173 -425 l32 -21 -85 6 c-153 10 -197 17
-173 26 38 14 42 38 19 119 l-22 75 -89 12 c-50 6 -113 12 -140 12 l-51 1 -28
-65 c-32 -74 -30 -110 9 -125 41 -15 29 -22 -27 -16 -29 4 -74 9 -101 12 l-47
6 42 21 c39 20 48 33 108 152 36 72 107 221 159 333 51 111 97 202 101 202 4
0 12 -6 17 -12z"/>
<path d="M4581 864 c-39 -86 -71 -158 -69 -159 5 -5 243 -23 247 -19 5 5 -89
316 -99 327 -3 4 -39 -63 -79 -149z m139 -139 c0 -9 -40 -8 -162 4 -4 1 11 40
33 89 23 48 45 98 51 112 9 22 14 13 44 -85 19 -60 34 -115 34 -120z"/>
<path d="M5400 1209 c-163 -18 -160 -17 -160 -50 0 -24 4 -29 23 -29 52 0 55
-9 82 -275 15 -137 27 -275 28 -305 2 -53 1 -56 -30 -70 -25 -12 -33 -21 -33
-42 0 -20 5 -28 18 -28 61 0 347 43 395 59 103 36 182 104 228 197 21 43 24
63 24 164 0 103 -3 121 -26 170 -51 106 -134 175 -253 206 -56 15 -178 16
-296 3z m344 -47 c75 -34 129 -83 167 -154 33 -61 34 -66 34 -178 0 -110 -1
-117 -31 -170 -17 -30 -54 -74 -82 -96 -83 -69 -140 -84 -452 -119 -45 -5 -45
-5 -18 10 50 28 50 32 18 352 -32 305 -40 343 -79 343 -10 0 -21 3 -25 8 -13
13 174 30 299 28 99 -2 129 -6 169 -24z"/>
<path d="M5473 1093 c16 -188 59 -570 67 -589 8 -20 13 -21 54 -13 97 18 163
66 198 145 54 123 19 371 -65 463 -40 43 -115 71 -191 71 l-69 0 6 -77z m174
28 c90 -42 138 -149 138 -316 0 -101 -2 -115 -28 -168 -21 -42 -39 -63 -70
-81 -56 -32 -117 -49 -122 -33 -6 16 -65 557 -65 591 0 25 3 26 53 26 29 0 70
-9 94 -19z"/>
<path d="M4304 3476 c-74 -74 -25 -171 114 -225 69 -28 72 -27 61 11 -5 18 -9
61 -9 96 0 74 -20 124 -56 141 -43 19 -74 13 -110 -23z m112 -17 c14 -16 20
-40 23 -100 2 -55 0 -79 -8 -79 -43 0 -131 84 -131 124 0 63 76 99 116 55z"/>
<path d="M4170 3242 c-21 -10 -42 -32 -53 -54 -16 -32 -16 -40 -4 -70 26 -61
85 -94 189 -105 71 -7 69 -18 19 112 -45 117 -87 150 -151 117z m81 -38 c6 -7
23 -47 39 -89 l28 -76 -36 7 c-62 10 -126 46 -136 77 -25 71 59 136 105 81z"/>
<path d="M4770 2797 c-14 -7 -40 -35 -57 -62 -18 -27 -44 -55 -58 -62 -35 -19
-31 -28 14 -41 54 -17 132 -15 158 3 41 29 54 126 20 153 -23 18 -52 22 -77 9z
m54 -33 c23 -22 20 -59 -6 -88 -23 -25 -37 -29 -95 -27 l-31 1 39 59 c22 33
47 62 57 64 9 3 18 5 19 6 1 0 9 -6 17 -15z"/>
<path d="M5813 3480 c-36 -22 -40 -32 -47 -145 -3 -44 -8 -90 -12 -103 l-7
-23 53 20 c103 39 170 102 170 159 0 36 -27 80 -60 97 -38 20 -58 19 -97 -5z
m80 -22 c55 -29 60 -72 15 -123 -26 -31 -94 -75 -113 -75 -3 0 -3 37 1 83 5
70 10 85 31 105 28 25 36 27 66 10z"/>
<path d="M6043 2902 c-19 -14 -73 -128 -73 -154 0 -4 15 -5 33 -2 99 18 147
52 147 107 0 60 -59 87 -107 49z m75 -40 c4 -29 -14 -51 -57 -69 -41 -17 -46
-13 -32 28 23 67 82 93 89 41z"/>
<path d="M4870 6732 c0 -6 14 -66 30 -134 30 -124 51 -256 69 -446 11 -118 33
-166 88 -189 46 -19 91 -4 132 42 36 42 47 79 61 210 13 127 25 206 57 378 14
76 23 140 21 143 -3 2 -38 -10 -79 -28 -61 -26 -87 -32 -149 -32 -72 0 -93 6
-217 61 -7 3 -13 0 -13 -5z m426 -48 c-14 -37 -58 -298 -72 -429 -16 -151 -32
-210 -67 -243 -37 -35 -70 -37 -105 -7 -41 35 -50 66 -62 227 -12 157 -38 312
-76 440 -4 14 1 14 48 -5 80 -32 205 -29 278 5 67 32 63 31 56 12z"/>
</g>
</svg>
